<?xml version="1.0" encoding="UTF-8" standalone="no"?>
<!DOCTYPE svg PUBLIC "-//W3C//DTD SVG 1.1//EN" "http://www.w3.org/Graphics/SVG/1.1/DTD/svg11.dtd">
<svg width="100%" height="100%" viewBox="0 0 332 214" version="1.1" xmlns="http://www.w3.org/2000/svg" xmlns:xlink="http://www.w3.org/1999/xlink" xml:space="preserve" xmlns:serif="http://www.serif.com/" style="fill-rule:evenodd;clip-rule:evenodd;stroke-linejoin:round;stroke-miterlimit:2;">
    <g transform="matrix(1,0,0,1,-6274,-9477)">
        <g transform="matrix(2.03544,0,0,1.95525,0,7008.83)">
            <g transform="matrix(0.883401,0,0,0.919632,-1681.5,-6884.27)">
                <path d="M5437.12,8889.24L5443.89,8901.42L5406.53,8921.72L5443.89,8941.75L5437.12,8954.34L5392.87,8929.17L5392.87,8914.42L5437.12,8889.24Z" style="fill:rgb(17,17,17);fill-rule:nonzero;"/>
                <path d="M5498.02,8859.06L5512.23,8864.2L5470.96,8977.21L5456.88,8972.07L5498.02,8859.06Z" style="fill:rgb(17,17,17);fill-rule:nonzero;"/>
                <path d="M5526.04,8901.42L5532.67,8889.24L5577.06,8914.42L5577.06,8929.17L5532.67,8954.34L5526.04,8941.75L5563.39,8921.72L5526.04,8901.42Z" style="fill:rgb(17,17,17);fill-rule:nonzero;"/>
            </g>
        </g>
    </g>
</svg>
