<?xml version="1.0" encoding="UTF-8" standalone="no"?>
<!DOCTYPE svg PUBLIC "-//W3C//DTD SVG 1.1//EN" "http://www.w3.org/Graphics/SVG/1.1/DTD/svg11.dtd">
<svg width="100%" height="100%" viewBox="0 0 2185 2281" version="1.1" xmlns="http://www.w3.org/2000/svg" xmlns:xlink="http://www.w3.org/1999/xlink" xml:space="preserve" xmlns:serif="http://www.serif.com/" style="fill-rule:evenodd;clip-rule:evenodd;stroke-linejoin:round;stroke-miterlimit:2;">
    <g>
        <clipPath id="_clip1">
            <rect id="adjust-spanner-svgrepo-com.svg" x="463.654" y="0.785" width="864.269" height="864.269"/>
        </clipPath>
        <g clip-path="url(#_clip1)">
            <g>
                <g>
                    <path d="M916.261,467.359C909.545,460.636 898.642,460.634 891.915,467.356L881.69,477.578C874.967,484.302 874.965,495.203 881.689,501.926C885.05,505.289 889.457,506.972 893.863,506.972C898.269,506.972 902.674,505.291 906.035,501.932L916.261,491.707C922.983,484.985 922.985,474.082 916.261,467.359Z" style="fill:rgb(238,238,238);fill-rule:nonzero;stroke:rgb(238,238,238);stroke-width:1.69px;"/>
                </g>
            </g>
            <g>
                <g>
                    <path d="M1299.12,123.782C1296.52,119.022 1291.83,115.764 1286.45,114.992C1281.09,114.224 1275.67,116.024 1271.83,119.859L1119.36,272.326L1056.35,209.311L1208.82,56.843C1212.65,53.008 1214.45,47.589 1213.68,42.218C1212.91,36.848 1209.65,32.157 1204.89,29.556C1161.03,5.6 1109.45,-3.857 1059.67,2.926C1008.22,9.94 961.561,33.106 924.747,69.919C880.137,114.528 855.57,173.838 855.57,236.925C855.57,254.432 857.469,271.648 861.157,288.339L500.734,648.764C451.333,698.164 451.333,778.543 500.734,827.943C524.665,851.874 556.481,865.054 590.324,865.054C624.167,865.054 655.985,851.874 679.916,827.945L1040.46,467.4C1057.34,471.127 1074.55,472.997 1091.76,472.997C1152.24,472.997 1212.72,449.974 1258.76,403.931C1295.58,367.117 1318.74,320.46 1325.75,269.004C1332.54,219.228 1323.08,167.654 1299.12,123.782ZM655.566,803.597C638.14,821.024 614.969,830.62 590.324,830.62C565.68,830.62 542.51,821.024 525.083,803.597C489.108,767.623 489.108,709.088 525.083,673.114L872.69,325.506C877.452,337.287 883.174,348.674 889.82,359.57L556.241,693.151C534.383,715.011 534.383,750.579 556.243,772.441C567.174,783.371 581.529,788.835 595.886,788.835C610.241,788.835 624.601,783.371 635.531,772.441L853.455,554.517C860.178,547.793 860.178,536.892 853.455,530.167C846.731,523.445 835.83,523.444 829.105,530.167L611.179,748.091C602.746,756.528 589.022,756.525 580.587,748.091C572.154,739.658 572.154,725.934 580.587,717.499L910.147,387.941C914.747,393.454 919.607,398.795 924.745,403.933C947.881,427.069 974.667,444.388 1003.26,455.897L655.566,803.597ZM1234.41,379.583C1155.75,458.245 1027.76,458.245 949.095,379.583C910.988,341.478 890.004,290.815 890.004,236.927C890.004,183.036 910.988,132.374 949.095,94.268C987.739,55.624 1039.77,35.371 1092.25,35.371C1117.61,35.371 1143.09,40.106 1167.19,49.779L1019.83,197.137C1013.11,203.86 1013.11,214.761 1019.83,221.485L1107.19,308.848C1110.42,312.076 1114.8,313.891 1119.36,313.891C1123.93,313.891 1128.31,312.076 1131.54,308.848L1278.9,161.489C1308.59,235.462 1291.73,322.263 1234.41,379.583Z" style="fill:rgb(238,238,238);fill-rule:nonzero;"/>
                </g>
            </g>
        </g>
        <clipPath id="_clip2">
            <rect id="car-svgrepo-com.svg" x="1163.39" y="432.92" width="1021.47" height="1021.47"/>
        </clipPath>
        <g clip-path="url(#_clip2)">
            <g>
                <path d="M1374.73,1061.07C1344.09,1061.07 1319.17,1085.99 1319.17,1116.62C1319.17,1147.26 1344.09,1172.18 1374.73,1172.18C1405.36,1172.18 1430.28,1147.25 1430.28,1116.62C1430.28,1085.99 1405.36,1061.07 1374.73,1061.07ZM1374.73,1138.9C1362.44,1138.9 1352.45,1128.9 1352.45,1116.62C1352.45,1104.34 1362.44,1094.35 1374.73,1094.35C1387.01,1094.35 1397,1104.34 1397,1116.62C1397,1128.9 1387.01,1138.9 1374.73,1138.9Z" style="fill:rgb(238,238,238);fill-rule:nonzero;"/>
                <path d="M1955.5,1061.07C1924.87,1061.07 1899.94,1085.99 1899.94,1116.62C1899.94,1147.26 1924.87,1172.18 1955.5,1172.18C1986.13,1172.18 2011.06,1147.25 2011.06,1116.62C2011.06,1085.99 1986.13,1061.07 1955.5,1061.07ZM1955.5,1138.9C1943.22,1138.9 1933.23,1128.9 1933.23,1116.62C1933.23,1104.34 1943.22,1094.35 1955.5,1094.35C1967.78,1094.35 1977.77,1104.34 1977.77,1116.62C1977.77,1128.9 1967.78,1138.9 1955.5,1138.9Z" style="fill:rgb(238,238,238);fill-rule:nonzero;"/>
                <path d="M2071.35,868.727L1922.88,851.764L1843.64,722.953C1819.45,683.62 1775.73,659.185 1729.55,659.185L1459.98,659.185C1382.49,659.185 1314,711.365 1293.43,786.081L1291.33,793.724C1281.11,830.851 1251.74,860.402 1214.67,870.852C1184.48,879.368 1163.39,907.226 1163.39,938.601L1163.39,1122.78C1163.39,1131.97 1170.84,1139.42 1180.03,1139.42L1265.58,1139.42C1276.13,1190.01 1321.06,1228.12 1374.73,1228.12C1428.39,1228.12 1473.32,1190.01 1483.88,1139.42L1846.35,1139.42C1856.91,1190.01 1901.83,1228.12 1955.5,1228.12C2009.17,1228.12 2054.1,1190.01 2064.65,1139.42L2154.46,1139.42C2162.92,1139.42 2170.04,1133.08 2170.99,1124.67L2184.03,1010.44C2192.02,940.323 2141.48,876.75 2071.35,868.727ZM1196.67,1085.92L1267.55,1085.92C1265.68,1092.44 1264.38,1099.2 1263.73,1106.14L1196.67,1106.14L1196.67,1085.92ZM1374.73,1194.84C1331.59,1194.84 1296.5,1159.75 1296.5,1116.62C1296.5,1073.49 1331.59,1038.4 1374.73,1038.4C1417.86,1038.4 1452.95,1073.49 1452.95,1116.62C1452.95,1159.75 1417.86,1194.84 1374.73,1194.84ZM1955.5,1194.84C1912.37,1194.84 1877.28,1159.75 1877.28,1116.62C1877.28,1073.49 1912.37,1038.4 1955.5,1038.4C1998.63,1038.4 2033.72,1073.49 2033.72,1116.62C2033.72,1159.75 1998.63,1194.84 1955.5,1194.84ZM1955.5,1005.12C1917.81,1005.12 1884.46,1023.93 1864.26,1052.64L1568.14,1052.64C1558.95,1052.64 1551.5,1060.09 1551.5,1069.28C1551.5,1078.47 1558.95,1085.92 1568.14,1085.92L1848.33,1085.92C1846.46,1092.44 1845.16,1099.2 1844.51,1106.14L1485.72,1106.14C1480.42,1049.56 1432.67,1005.12 1374.73,1005.12C1337.04,1005.12 1303.68,1023.93 1283.49,1052.64L1196.67,1052.64L1196.67,938.601C1196.67,922.061 1207.79,907.373 1223.71,902.884C1271.92,889.292 1310.12,850.85 1323.42,802.557L1325.52,794.914C1342.13,734.595 1397.42,692.466 1459.98,692.466L1729.55,692.466C1764.25,692.466 1797.11,710.83 1815.29,740.39L1898.78,876.097C1901.45,880.45 1905.99,883.33 1911.06,883.912L2067.57,901.792C2103.08,905.855 2131.79,929.161 2144.5,960.092L2092.55,960.092C2083.36,960.092 2075.91,967.543 2075.91,976.733C2075.91,985.923 2083.36,993.373 2092.55,993.373L2151.52,993.373C2151.63,997.755 2151.47,1002.19 2150.96,1006.67L2145.71,1052.64L2046.74,1052.64C2026.55,1023.93 1993.19,1005.12 1955.5,1005.12ZM2066.5,1106.14C2065.85,1099.2 2064.54,1092.44 2062.67,1085.92L2141.92,1085.92L2139.61,1106.14L2066.5,1106.14Z" style="fill:rgb(238,238,238);fill-rule:nonzero;"/>
                <path d="M1730.42,910.441L1695.45,910.441C1686.26,910.441 1678.81,917.892 1678.81,927.082C1678.81,936.272 1686.26,943.722 1695.45,943.722L1730.42,943.722C1739.61,943.722 1747.06,936.272 1747.06,927.082C1747.06,917.892 1739.61,910.441 1730.42,910.441Z" style="fill:rgb(238,238,238);fill-rule:nonzero;"/>
                <path d="M1506.95,927.082C1506.95,917.892 1499.5,910.441 1490.31,910.441L1455.34,910.441C1446.15,910.441 1438.7,917.892 1438.7,927.082C1438.7,936.272 1446.15,943.722 1455.34,943.722L1490.31,943.722C1499.5,943.722 1506.95,936.272 1506.95,927.082Z" style="fill:rgb(238,238,238);fill-rule:nonzero;"/>
                <path d="M1527.56,1062.91C1524.65,1056 1517.23,1051.66 1509.76,1052.82C1502.99,1053.88 1497.5,1058.97 1495.97,1065.64C1492.65,1080.08 1509.4,1091.3 1521.58,1083.01C1528.02,1078.63 1530.53,1070.11 1527.56,1062.91C1527.14,1061.91 1527.98,1063.93 1527.56,1062.91Z" style="fill:rgb(238,238,238);fill-rule:nonzero;"/>
                <path d="M1797.98,751.067C1783.49,727.466 1757.27,712.805 1729.55,712.805L1459.97,712.805C1406.53,712.805 1359.31,748.786 1345.13,800.318L1343.04,807.946C1337.56,827.818 1329.13,861.951 1328.77,863.395C1327.54,868.361 1328.67,873.614 1331.82,877.644C1334.98,881.671 1339.81,884.025 1344.93,884.025L1850,884.025C1856.03,884.025 1861.59,880.765 1864.53,875.503C1867.47,870.24 1867.33,863.799 1864.17,858.665L1797.98,751.067ZM1605.7,746.084L1605.7,850.739L1452.48,850.739L1452.48,746.419C1454.96,746.201 1457.45,746.084 1459.97,746.084L1605.7,746.084ZM1375.12,816.766L1377.22,809.131C1383.57,786.068 1399.11,767.333 1419.2,756.443L1419.2,850.737L1366.25,850.737C1369.06,839.661 1372.49,826.353 1375.12,816.766ZM1638.98,850.739L1638.98,746.084L1729.55,746.084C1745.78,746.084 1761.13,754.666 1769.62,768.493L1820.23,850.739L1638.98,850.739Z" style="fill:rgb(238,238,238);fill-rule:nonzero;"/>
            </g>
        </g>
        <clipPath id="_clip3">
            <rect id="tire-icon.svg" x="0.607" y="1022.26" width="926.094" height="864.269"/>
        </clipPath>
        <g clip-path="url(#_clip3)">
            <g id="Layer_1-2">
                <g>
                    <path d="M129.787,1854.76C128.578,1855.18 128.296,1855.36 128.013,1855.38C111.639,1856.14 99.775,1849.17 92.419,1834.47C88.253,1826.17 83.778,1817.99 80.075,1809.48C77.657,1803.95 75.189,1801.84 69.531,1805.62C63.204,1809.84 52.351,1810.74 50.525,1816.93C48.982,1822.18 55.772,1829.95 58.961,1836.56C61.558,1841.96 64.258,1847.28 67.113,1853.02C47.851,1850.03 32.754,1832.13 31.854,1811.56C31.494,1802.89 32.214,1794.17 31.571,1785.53C31.108,1779.26 33.423,1778.25 39.107,1778.28C81.206,1778.51 123.332,1778.41 165.432,1778.41C210.438,1778.41 255.444,1778.18 300.45,1778.61C308.294,1778.69 309.785,1776.3 309.657,1769.07C309.22,1747.55 309.528,1747.52 287.617,1747.52C205.654,1747.52 123.666,1747.42 41.704,1747.7C34.22,1747.7 31.211,1746.8 31.494,1738.16C32.214,1716.69 31.7,1716.66 53.663,1716.66C125.029,1716.66 196.396,1716.43 267.737,1716.94C277.432,1717.02 279.181,1714.24 278.847,1705.35C278.127,1685.83 278.616,1685.8 259.559,1685.8C187.549,1685.8 115.54,1685.54 43.556,1686.08C33.114,1686.16 30.517,1683.1 31.597,1673.45C32.729,1663.3 30.491,1652.91 33.5,1642.8C38.438,1626.16 49.265,1615.59 67.859,1609.65C61.97,1621.53 57.16,1631.74 51.863,1641.72C49.522,1646.09 49.162,1648.38 54.383,1651.08C76.191,1662.45 76.063,1662.65 87.096,1640.61C91.108,1632.59 95.711,1624.8 98.952,1616.46C101.523,1609.86 105.458,1607.9 112.042,1608.54C117.443,1609.06 122.946,1608.65 130.044,1608.65C124.566,1619.81 119.783,1630.35 114.228,1640.46C111.219,1645.94 110.859,1648.53 117.468,1651.72C138.171,1661.7 137.991,1662.06 148.124,1641.82C150.13,1637.81 152.136,1633.8 154.142,1629.79C161.583,1614.92 174.073,1608.03 191.613,1609.11C186.083,1620.25 180.914,1631.15 175.256,1641.8C172.864,1646.27 172.839,1648.48 177.931,1651.11C199.662,1662.4 199.585,1662.6 210.592,1640.51C214.167,1633.34 218.333,1626.39 221.085,1618.91C224.274,1610.24 229.7,1607.08 238.496,1608.62C245.671,1609.88 249.169,1607.51 247.909,1599.59C247.317,1595.84 247.986,1591.88 247.754,1588.05C247.497,1583.57 250.249,1577.66 242.045,1576.7C240.528,1576.53 239.37,1572.64 238.213,1570.35C231.449,1556.9 224.634,1543.48 218.05,1529.92C216.173,1526.02 214.681,1524.99 210.129,1527.02C187.086,1537.28 187.009,1537.07 198.325,1559.68C201.154,1565.34 203.957,1571.02 206.94,1577.04C205.346,1577.37 204.497,1577.55 203.648,1577.73C185.903,1581.36 175.05,1574.67 169.521,1557.06C166.486,1547.41 160.417,1538.72 156.071,1529.43C154.322,1525.71 152.47,1524.32 148.844,1526.91C148.587,1527.1 148.278,1527.22 147.995,1527.38C140.923,1531.08 130.61,1533.22 127.807,1538.98C125.698,1543.32 133.105,1552.38 136.397,1559.27C138.866,1564.46 141.54,1569.56 144.215,1574.88C127.344,1573.62 111.27,1556.54 109.342,1536.97C108.313,1526.45 109.162,1515.78 108.853,1505.18C108.647,1498.09 113.816,1500.73 116.903,1500.71C157.408,1500.55 197.913,1500.45 238.419,1500.76C245.517,1500.81 248.243,1499.6 248.011,1491.63C247.42,1469.75 247.857,1469.75 226.254,1469.75C189.941,1469.75 153.602,1469.57 117.288,1469.9C110.782,1469.95 108.622,1468.72 108.724,1461.69C109.059,1438.88 108.724,1438.88 131.459,1438.88C177.751,1438.88 224.043,1438.73 270.334,1439.04C276.918,1439.09 278.95,1437.73 278.847,1430.78C278.513,1408.02 278.847,1408.02 256.087,1408.02C209.795,1408.02 163.503,1407.87 117.211,1408.18C110.576,1408.23 108.159,1406.81 108.776,1399.87C109.444,1392.21 108.776,1384.44 108.956,1376.75C109.419,1355.58 122.149,1339.23 144.703,1332.39C139.2,1343.6 134.519,1353.78 129.17,1363.63C126.495,1368.52 126.47,1370.73 132.102,1373.56C153.473,1384.26 153.319,1384.54 164.069,1363.12C166.075,1359.11 168.107,1355.12 170.113,1351.11C177.331,1336.67 189.641,1330.12 207.043,1331.43C201.334,1342.83 195.907,1353.96 190.172,1364.94C188.166,1368.78 188.346,1370.6 192.59,1372.94C214.836,1385.18 214.758,1385.34 226.074,1362.66C227.797,1359.21 229.958,1355.89 231.063,1352.27C236.644,1333.72 247.934,1325.39 268.277,1332.31C263.133,1342.62 257.81,1353.68 252.075,1364.53C249.837,1368.78 250.197,1370.73 254.775,1373.17C276.661,1384.8 276.584,1384.95 287.565,1363.02C291.86,1354.43 296.335,1345.89 300.321,1337.14C302.43,1332.49 305.028,1329.82 310.48,1330.79C312.666,1331.18 314.98,1330.84 317.218,1330.84C342.755,1330.84 342.653,1330.84 340.492,1304.77C340.184,1301.04 339.258,1299.78 335.529,1299.88C327.171,1300.11 318.787,1299.52 310.48,1300.11C304.976,1300.5 302.507,1298.23 300.321,1293.66C293.866,1280.05 286.922,1266.68 280.364,1253.12C278.281,1248.8 276.404,1246.31 271.157,1249.58C264.419,1253.77 253.849,1255.67 251.278,1261.41C249.22,1265.93 256.678,1274.8 259.996,1281.72C262.748,1287.43 265.628,1293.09 269.074,1299.98C260.767,1299.98 253.515,1299.65 246.314,1300.09C241.479,1300.37 240.476,1297.1 238.933,1293.99C232.195,1280.51 225.303,1267.12 218.873,1253.51C216.533,1248.55 214.63,1246.93 208.946,1249.73C187.472,1260.27 187.369,1260.02 198.042,1281.36C200.897,1287.07 203.777,1292.76 207.403,1299.96C198.659,1299.96 190.867,1299.88 183.1,1299.98C179.165,1300.03 178.702,1296.77 177.468,1294.35C170.55,1280.62 163.606,1266.88 156.919,1253.02C154.759,1248.55 152.727,1246.41 147.635,1249.63C140.949,1253.85 129.761,1255.03 127.781,1261.35C126.11,1266.76 133.259,1274.91 136.577,1281.83C139.328,1287.54 142.209,1293.17 145.578,1299.98C137.245,1299.98 129.967,1299.67 122.741,1300.09C117.88,1300.37 116.954,1296.97 115.411,1293.89C108.519,1280.13 101.575,1266.39 94.888,1252.56C92.882,1248.39 91.262,1247.08 86.273,1249.39C63.821,1259.84 63.718,1259.63 74.623,1281.44C77.194,1286.58 79.792,1291.73 82.441,1296.97C67.036,1297.64 48.699,1277.48 47.516,1258.32C46.873,1248.06 47.439,1237.75 47.156,1227.48C47.028,1223.47 48.699,1222.47 52.248,1222.78C54.486,1222.98 56.749,1222.8 58.986,1222.8C221.316,1222.8 383.647,1222.73 545.977,1223.04C555.081,1223.04 556.881,1220.41 556.624,1212C556.032,1191.94 556.444,1191.94 535.973,1191.94C376.523,1191.94 217.099,1191.84 57.649,1192.17C48.519,1192.17 46.77,1189.5 47.028,1181.12C47.619,1161.08 47.208,1161.08 67.705,1161.08C247.394,1161.08 427.084,1161.18 606.773,1160.8C616.958,1160.8 619.144,1163.7 618.321,1172.91C617.523,1181.84 618.449,1190.91 618.038,1199.89C617.781,1205.42 618.758,1207.58 625.162,1207.58C649.028,1207.58 649.028,1207.89 649.028,1183.97C649.028,1156.66 649.105,1129.32 649.028,1102.01C648.77,1055.77 615.62,1022.36 569.431,1022.33C411.602,1022.23 253.772,1022.23 95.943,1022.33C49.702,1022.36 16.475,1055.66 16.321,1101.98C16.166,1148.92 17.709,1195.9 15.858,1242.76C14.186,1285.22 37.846,1326.42 93.011,1331.69C78.635,1350.52 77.632,1372.04 77.863,1394.19C78.326,1437.26 77.992,1480.34 77.992,1523.42C77.992,1547.75 80.101,1555.72 92.445,1577.17C82.518,1578.84 72.694,1577.35 63.101,1579.3C28.228,1586.37 1.533,1616.36 1.096,1651.85C0.453,1705.22 0.401,1758.58 1.096,1811.92C1.61,1852.5 35.326,1886.06 76.037,1886.22C187.575,1886.68 299.113,1886.37 410.676,1886.53C416.051,1886.53 417.568,1885.19 417.645,1879.68C417.928,1855.54 418.134,1855.54 394.371,1855.54C381.846,1855.54 369.296,1855.2 356.772,1855.69C351.345,1855.9 348.773,1853.89 346.587,1849.26C340.132,1835.66 333.034,1822.36 326.682,1808.7C324.162,1803.28 321.564,1802.48 316.549,1805.49C310.017,1809.45 299.987,1811.35 297.441,1816.91C295.461,1821.23 302.584,1829.77 305.773,1836.38C308.654,1842.37 311.688,1848.31 315.289,1855.54C307.008,1855.54 299.781,1855.2 292.58,1855.64C287.771,1855.92 286.717,1852.71 285.174,1849.6C278.461,1836.12 271.543,1822.72 265.088,1809.12C262.773,1804.23 260.973,1802.43 255.212,1805.26C233.687,1815.8 233.558,1815.57 244.231,1836.89C247.086,1842.6 249.966,1848.28 253.644,1855.54C244.925,1855.54 237.133,1855.46 229.366,1855.56C225.431,1855.61 224.943,1852.4 223.708,1849.95C216.79,1836.22 209.872,1822.49 203.16,1808.63C201.025,1804.23 199.096,1801.91 193.927,1805.15C187.215,1809.35 176.645,1811.28 174.073,1817.01C172.041,1821.59 179.474,1830.41 182.817,1837.33C185.569,1843.04 188.449,1848.69 191.844,1855.54C183.537,1855.54 176.285,1855.23 169.084,1855.64C164.249,1855.92 163.272,1852.63 161.703,1849.52C154.965,1836.04 148.072,1822.64 141.643,1809.04C139.303,1804.05 137.168,1801.99 131.716,1805.34C125.184,1809.32 114.768,1811.04 112.325,1816.55C109.779,1822.26 117.828,1829.92 120.863,1836.92C123.409,1842.75 126.521,1848.34 129.761,1854.76L129.787,1854.76ZM605.076,1067.55C611.068,1073.87 614.514,1080.43 616.52,1087.96C619.324,1098.43 617.086,1109.13 618.192,1119.62C619.118,1128.27 616.392,1130.55 607.519,1130.55C431.353,1130.27 255.187,1130.37 79.02,1130.25C68.553,1130.25 58.009,1131.69 47.593,1129.27C47.491,1117.75 46.925,1106.2 47.439,1094.7C48.185,1078.04 64.464,1056.13 82.364,1056.2C79.715,1061.48 76.86,1066.52 74.597,1071.79C71.588,1078.78 63.513,1086.42 66.033,1092.16C68.45,1097.66 78.892,1099.36 85.398,1103.37C90.851,1106.71 92.959,1104.63 95.3,1099.64C101.729,1086.04 108.647,1072.64 115.36,1059.16C116.903,1056.05 117.906,1052.78 122.741,1053.07C129.941,1053.5 137.194,1053.17 145.578,1053.17C139.534,1065.23 134.545,1076.29 128.527,1086.78C124.386,1094.04 129.993,1095.73 133.928,1096.32C141.463,1097.48 147.558,1111.42 155.968,1100.57C161.934,1092.88 165.123,1083 169.572,1074.13C176.979,1059.35 188.869,1052.42 205.243,1053.35C205.5,1053.35 205.757,1053.58 206.76,1054.12C203.803,1060.01 200.845,1065.95 197.862,1071.87C187.215,1093.16 187.292,1093.01 208.921,1103.42C213.755,1105.74 215.993,1105.45 218.385,1100.39C224.917,1086.47 232.169,1072.87 238.753,1058.98C240.836,1054.61 243.279,1052.71 248.243,1053.04C254.775,1053.48 261.359,1053.14 268.946,1053.14C265.345,1060.42 262.31,1066.36 259.404,1072.36C256.215,1078.96 249.092,1087.55 251.098,1091.82C253.695,1097.38 263.751,1099.23 270.257,1103.22C275.375,1106.33 277.844,1105.22 280.339,1099.9C286.871,1085.99 293.995,1072.33 300.81,1058.54C302.25,1055.61 303.33,1052.86 307.574,1053.07C314.852,1053.4 322.156,1053.17 330.642,1053.17C327.171,1060.11 324.187,1066.05 321.23,1072C310.608,1093.21 310.711,1093.03 332.443,1103.5C337.509,1105.94 339.566,1105.09 341.83,1100.28C348.439,1086.4 355.434,1072.69 362.327,1058.93C363.715,1056.18 364.41,1052.89 368.859,1053.09C376.343,1053.4 383.852,1053.17 392.365,1053.17C388.816,1060.24 385.884,1065.9 383.158,1071.63C379.866,1078.53 372.434,1087.58 374.568,1091.95C377.371,1097.74 387.864,1099.54 394.705,1103.65C399.412,1106.51 401.34,1104.94 403.346,1100.64C407.564,1091.64 413.402,1083.21 416.308,1073.85C421.76,1056.15 432.742,1049.62 450.461,1053.19C451.31,1053.38 452.159,1053.56 453.727,1053.89C450.59,1060.22 447.555,1066.13 444.675,1072.12C441.486,1078.73 434.696,1086.45 436.214,1091.77C437.988,1098 448.867,1098.89 455.168,1103.09C460.774,1106.84 463.191,1104.79 465.737,1099.28C472.09,1085.62 479.059,1072.25 485.874,1058.83C487.109,1056.41 487.546,1053.12 491.481,1053.14C499.273,1053.22 507.066,1053.14 515.836,1053.14C512.235,1060.32 509.123,1065.9 506.577,1071.71C503.517,1078.71 495.519,1086.37 497.987,1092.08C500.379,1097.56 510.821,1099.31 517.353,1103.29C522.779,1106.61 524.914,1104.63 527.28,1099.62C533.709,1085.99 540.576,1072.59 547.391,1059.16C548.497,1057 548.831,1053.48 551.84,1053.38C559.761,1053.14 568.968,1050.5 575.141,1054.66C578.227,1056.74 570.897,1064.79 568.994,1070.43C568.788,1071.02 568.351,1071.53 568.068,1072.12C564.931,1078.76 558.09,1086.5 559.659,1091.77C561.484,1097.97 572.337,1098.87 578.664,1103.09C584.373,1106.89 586.739,1104.63 589.208,1099.2C593.966,1088.74 599.444,1078.6 604.999,1067.55L605.076,1067.55Z" style="fill:rgb(238,238,238);fill-rule:nonzero;"/>
                    <path d="M926.702,1561.79C926.29,1383.05 780.394,1237.77 601.861,1238.34C423.072,1238.9 277.87,1384.95 278.616,1563.41C279.387,1741.86 424.795,1886.65 602.993,1886.42C781.654,1886.17 927.087,1740.32 926.702,1561.79ZM340.338,1562.87C340.338,1560.63 340.029,1558.32 340.389,1556.13C341.65,1548.6 338.718,1545.89 331.131,1546.82C326.065,1547.44 320.844,1546.74 315.726,1547C311.38,1547.23 309.245,1546.41 310.068,1541.21C311.688,1531.08 312.871,1520.87 313.9,1510.64C314.646,1503.41 316.858,1501.35 324.753,1503.77C344.916,1509.97 344.736,1509.35 350.882,1488.8C352.991,1481.73 352.451,1478.28 344.53,1477.23C339.489,1476.56 334.629,1474.63 329.639,1473.45C325.447,1472.47 323.596,1470.75 325.602,1466.12C330.231,1455.57 334.526,1444.88 338.898,1434.2C340.389,1430.55 342.241,1429.42 345.97,1431.84C351.602,1435.49 357.517,1438.73 363.355,1442.1C365.618,1443.41 367.702,1444.72 369.63,1441.2C373.745,1433.59 381.203,1426.31 381.512,1418.64C381.718,1413.4 370.145,1410.95 364.101,1406.84C363.304,1406.3 362.455,1405.84 361.581,1405.45C357.8,1403.8 357.003,1401.75 359.755,1398.22C364.307,1392.44 368.37,1386.24 372.948,1380.43C384.367,1365.95 384.418,1366 397.148,1378.73C398.974,1380.56 400.903,1382.25 402.575,1384.21C404.864,1386.86 406.484,1387.14 409.544,1384.59C429.45,1367.98 429.527,1368.08 411.807,1349.69C411.37,1349.23 410.933,1348.74 410.419,1348.36C406.947,1345.73 407.255,1343.42 410.65,1340.85C418.057,1335.19 425.181,1329.2 432.665,1323.64C442.669,1316.24 442.746,1316.36 448.79,1326.81C451.027,1330.69 453.47,1334.47 455.528,1338.46C457.071,1341.44 458.202,1342.55 461.983,1340.77C485.592,1329.76 485.669,1329.89 473.427,1307.72C473.118,1307.16 472.861,1306.57 472.476,1306.08C469.364,1302.27 470.752,1300.06 474.919,1298.39C484.717,1294.45 494.618,1290.7 504.16,1286.2C510.821,1283.06 512.647,1285.27 514.267,1291.73C519.693,1313.28 519.899,1313.05 541.605,1307.26C547.571,1305.67 549.757,1303.99 547.7,1296.95C541.193,1274.8 541.605,1274.68 564.699,1271.49C587.125,1268.38 587.459,1268.38 587.048,1291.29C586.919,1298.41 588.565,1300.99 595.895,1300.16C602.839,1299.39 612.226,1302.42 616.366,1298.9C621.278,1294.71 618.063,1285.07 617.909,1277.84C617.755,1271.38 618.784,1268.45 626.19,1270C634.008,1271.62 642.109,1271.98 650.056,1273.06C663.738,1274.88 663.738,1274.93 660.343,1287.69C659.263,1291.73 658.132,1295.71 656.923,1299.73C655.817,1303.43 656.691,1305.05 660.832,1306.46C684.647,1314.62 684.724,1314.82 691.256,1290.83C692.696,1285.5 694.111,1283.03 700.18,1285.89C709.721,1290.39 719.597,1294.2 729.421,1298.08C734.23,1299.98 735.413,1301.78 732.456,1307C728.598,1313.77 719.725,1320.99 722.734,1327.55C725.486,1333.54 735.67,1336.04 742.408,1340.33C745.803,1342.52 747.758,1342.52 749.738,1338.51C752.747,1332.49 756.528,1326.88 759.717,1320.97C761.44,1317.78 762.983,1316.75 766.223,1319.3C775.559,1326.63 785.023,1333.8 794.538,1340.9C797.959,1343.44 798.062,1345.5 794.847,1348.41C790.089,1352.7 785.614,1357.36 781.191,1361.99C779.648,1363.61 776.304,1365.05 779.442,1368.11C785.871,1374.36 791.401,1382.95 799.09,1385.88C803.411,1387.53 808.914,1377.19 814.187,1372.61C815.164,1371.76 816.115,1370.89 816.913,1369.88C819.279,1366.92 821.31,1366.85 823.702,1370.04C830.852,1379.53 838.078,1388.94 845.459,1398.25C848.185,1401.7 847.388,1403.55 843.659,1405.48C837.693,1408.56 831.983,1412.16 826.12,1415.48C823.728,1416.84 822.391,1417.64 823.908,1421.27C833.809,1444.67 835.507,1445.42 856.724,1433.43C857.547,1432.97 858.447,1432.53 859.193,1431.96C862.639,1429.37 864.748,1430.45 866.316,1434.18C869.428,1441.56 872.9,1448.79 875.883,1456.22C882.056,1471.57 881.978,1471.62 866.265,1475.71C863.153,1476.51 860.067,1477.33 856.955,1478.15C853.869,1478.98 852.48,1480.19 853.097,1484.12C856.929,1509.45 857.367,1509.86 881.361,1503.64C882.287,1503.41 883.213,1503.08 884.113,1502.82C887.816,1501.69 889.9,1502.25 890.414,1506.88C891.623,1518.04 893.14,1529.18 895.069,1540.24C896.097,1546.13 893.911,1547.03 888.614,1547.15C880.77,1547.34 869.968,1543.27 865.853,1548.95C862.022,1554.25 865.159,1564.44 864.825,1572.46C864.645,1576.63 865.853,1578.14 870.174,1577.91C876.578,1577.55 883.033,1577.99 889.462,1577.76C893.706,1577.61 896.046,1578.2 895.172,1583.49C893.474,1593.93 892.266,1604.48 891.057,1615C890.337,1621.17 888.408,1624.26 881.413,1621.35C876.141,1619.14 870.354,1618.11 864.773,1616.7C862.304,1616.08 859.836,1615.26 858.961,1619.24C857.109,1627.65 852.146,1636.52 853.715,1644.11C854.795,1649.33 866.188,1648.23 872.694,1650.82C873.877,1651.29 875.189,1651.39 876.449,1651.67C880.487,1652.6 881.31,1654.76 879.664,1658.59C875.086,1669.16 870.766,1679.86 866.394,1690.51C864.902,1694.11 863.025,1695.32 859.295,1692.92C853.638,1689.3 847.645,1686.18 841.936,1682.64C838.876,1680.73 837.307,1681.12 835.069,1684.23C819.999,1705.35 819.896,1705.29 841.91,1718.38C842.193,1718.54 842.476,1718.69 842.785,1718.82C847.491,1720.57 848.443,1723.04 845.022,1727.23C840.959,1732.19 837.538,1737.67 833.603,1742.74C825.202,1753.49 816.278,1754.13 806.831,1744.67C805.468,1743.3 804.028,1742.02 802.768,1740.55C800.556,1737.95 798.936,1737.47 795.798,1740.09C775.764,1756.75 775.687,1756.65 793.432,1775.01C793.87,1775.48 794.307,1775.97 794.821,1776.35C798.216,1778.92 798.19,1781.19 794.693,1783.81C788.289,1788.64 782.219,1793.92 775.79,1798.7C762.674,1808.45 762.623,1808.37 754.65,1794.61C753.056,1791.83 751.101,1789.21 749.841,1786.3C748.092,1782.27 745.983,1781.98 742.563,1784.4C735.799,1789.16 724.663,1790.96 722.606,1797.88C721.063,1803.1 728.701,1811.07 732.276,1817.81C732.43,1818.09 732.61,1818.37 732.816,1818.61C735.902,1822.33 734.719,1824.55 730.45,1826.24C720.343,1830.26 710.159,1834.19 700.309,1838.79C694.394,1841.55 692.825,1839.57 691.307,1833.98C685.007,1810.66 684.878,1810.89 661.886,1817.88C657.026,1819.35 655.663,1821.15 657.18,1825.86C659.057,1831.64 660.42,1837.59 662.195,1843.42C663.455,1847.62 662.761,1849.75 657.746,1850.26C647.227,1851.34 636.683,1852.63 626.319,1854.66C619.015,1856.1 617.575,1853.53 618.012,1846.92C618.475,1839.92 620.584,1830.59 617.06,1826.42C612.894,1821.46 603.199,1825.6 596.023,1824.6C588.848,1823.62 586.945,1826.04 587.074,1833.34C587.511,1856.64 587.176,1856.67 563.876,1853.09C549.097,1850.83 543.636,1842.39 547.494,1827.76C547.751,1826.84 548.137,1825.93 548.42,1825.04C549.526,1821.41 548.806,1819.76 544.511,1818.37C520.542,1810.58 520.593,1810.38 514.01,1833.83C513.932,1834.14 513.881,1834.47 513.855,1834.78C513.058,1840.54 510.306,1841.13 505.24,1838.85C495.93,1834.6 486.415,1830.77 476.848,1827.14C471.215,1825.01 469.672,1822.57 473.35,1816.99C477.362,1810.92 484.074,1803.36 482.891,1797.95C481.477,1791.53 470.727,1790.06 464.606,1785.53C459.977,1782.11 457.122,1782.16 454.55,1787.82C452.159,1793.04 448.687,1797.77 446.141,1802.94C444.135,1807.01 442.103,1808.11 438.245,1805.05C429.193,1797.88 420.037,1790.83 410.804,1783.86C407.461,1781.34 407.153,1779.31 410.419,1776.35C415.408,1771.83 420.037,1766.89 424.795,1762.1C426.312,1760.59 428.55,1759.17 425.926,1756.65C419.446,1750.45 413.942,1741.81 406.252,1738.86C401.932,1737.21 396.403,1747.52 391.13,1752.1C390.41,1752.74 389.665,1753.38 389.099,1754.16C386.296,1757.91 383.852,1757.94 380.946,1754.05C374.054,1744.77 367.033,1735.59 359.883,1726.54C357.157,1723.09 357.877,1721.21 361.581,1719.26C367.547,1716.12 373.179,1712.42 379.146,1709.31C382.489,1707.56 382.618,1706.04 380.946,1702.67C369.502,1679.68 369.605,1679.63 347.668,1691.79C347.102,1692.1 346.562,1692.43 346.047,1692.85C342.601,1695.57 340.518,1694.31 338.975,1690.63C335.735,1682.97 332.16,1675.43 329.074,1667.69C323.313,1653.22 323.441,1653.16 339.001,1649.05C342.113,1648.23 345.199,1647.38 348.285,1646.53C351.319,1645.73 352.811,1644.7 352.194,1640.66C348.259,1615.2 347.745,1614.74 323.879,1621.04C322.953,1621.3 322.053,1621.63 321.127,1621.94C317.346,1623.23 315.366,1622.48 314.877,1617.88C314.029,1609.6 312.177,1601.42 311.354,1593.14C309.837,1577.86 310.017,1577.84 325.396,1577.84C340.775,1577.84 340.389,1577.84 340.389,1562.89L340.338,1562.87Z" style="fill:rgb(238,238,238);fill-rule:nonzero;"/>
                    <path d="M602.324,1732.09C696.142,1731.99 772.498,1655.91 772.344,1562.71C772.19,1467.94 696.22,1392.51 601.064,1392.67C508.635,1392.8 432.896,1469.51 432.922,1562.97C432.922,1655.74 509.535,1732.22 602.324,1732.12L602.324,1732.09ZM536.358,1684.03C527.511,1679.7 520.31,1673.84 512.827,1668.31C507.374,1664.27 508.326,1661.86 513.032,1657.69C534.249,1638.92 550.169,1616.21 561.227,1590.08C566.628,1577.32 564.776,1571.46 553.178,1564.46C526.637,1548.47 497.859,1539.49 466.818,1536.89C467.358,1527.15 471.241,1518.66 473.967,1509.86C475.87,1503.77 478.288,1503.05 483.971,1506.39C508.918,1521.1 535.973,1529.56 564.905,1531.52C577.635,1532.39 582.393,1528.56 585.273,1516.35C590.597,1493.61 591.497,1470.7 589.208,1447.47C588.462,1439.84 580.85,1430.16 588.308,1425C594.737,1420.55 605.153,1423.58 613.82,1423.79C619.581,1423.92 620.584,1426.28 619.349,1431.68C612.894,1459.66 613.434,1487.7 619.915,1515.62C622.95,1528.71 627.373,1532.44 640.618,1531.52C669.55,1529.46 696.58,1520.97 721.551,1506.29C726.669,1503.28 729.215,1503.31 730.964,1509.27C733.022,1516.32 735.388,1523.32 737.702,1530.28C739.4,1535.38 738.139,1537.1 732.327,1537.66C703.189,1540.49 676.031,1549.65 651.085,1565.08C640.926,1571.36 638.869,1577.63 643.395,1588.54C652.319,1610.09 665.204,1629.07 680.403,1646.71C685.598,1652.73 697.763,1656.2 694.908,1664.87C692.516,1672.07 682.435,1676.23 674.977,1680.71C673.099,1681.84 671.145,1682.82 668.907,1684.05C657.283,1655.99 640.644,1631.89 618.166,1611.99C605.179,1600.49 599.881,1600.55 586.919,1612.14C564.571,1632.13 547.983,1656.22 536.358,1684L536.358,1684.03ZM717.9,1639.3C701.569,1625.64 688.761,1609.91 679.014,1591.67C677.6,1589.02 675.157,1586.5 679.914,1584.21C697.66,1575.7 716.202,1570.22 735.773,1568.19C739.554,1567.81 741.766,1568.19 741.251,1573.05C738.731,1596.92 731.89,1619.16 717.9,1639.3ZM493.898,1476.48C508.892,1457.37 527.383,1443.67 549.32,1434.18C555.647,1431.42 555.544,1435.49 556.29,1439.24C559.813,1457.04 560.533,1474.89 558.424,1492.94C557.73,1498.75 555.518,1499.81 550.4,1498.78C530.392,1494.82 511.618,1487.9 493.898,1476.48ZM487.315,1639.38C473.53,1619.01 466.432,1596.76 464.04,1572.74C463.5,1567.39 466.586,1567.91 469.878,1568.27C488.858,1570.3 506.937,1575.55 524.22,1583.67C528.566,1585.71 528.617,1587.74 526.534,1591.52C516.556,1609.73 503.851,1625.64 487.315,1639.38ZM711.393,1476.53C693.751,1487.85 675.08,1494.87 655.148,1498.65C652.088,1499.24 648.025,1501.15 647.202,1495.2C644.527,1475.66 645.427,1456.29 649.413,1437.01C650.133,1433.51 651.625,1432.27 655.406,1433.92C677.523,1443.43 696.322,1457.17 711.393,1476.53ZM603.07,1701.26C592.089,1701.43 581.339,1699.76 570.614,1697.5C566.654,1696.65 564.931,1695.55 566.911,1691.15C574.858,1673.4 585.453,1657.51 598.878,1643.44C601.836,1640.33 603.713,1640.56 606.568,1643.57C619.709,1657.46 630.254,1672.97 638.072,1690.43C640.103,1694.95 639.409,1696.58 634.548,1697.55C624.133,1699.63 613.717,1701.36 603.07,1701.26Z" style="fill:rgb(238,238,238);fill-rule:nonzero;"/>
                    <path d="M819.227,1562.35C834.709,1562.35 835.018,1562.33 833.783,1548.34C826.222,1463.93 785.846,1400.56 712.267,1358.26C705.118,1354.14 701.98,1355.45 699.383,1362.76C697.145,1369.03 691.127,1375.52 692.053,1380.99C693.056,1386.78 702.469,1388.09 707.998,1391.69C767.329,1430.19 799.013,1484.71 802.948,1555.23C803.282,1561.22 804.774,1563.25 810.586,1562.43C813.415,1562.02 816.347,1562.35 819.253,1562.35L819.227,1562.35Z" style="fill:rgb(238,238,238);fill-rule:nonzero;"/>
                    <path d="M602.659,1779.18C602.659,1794.3 602.684,1794.64 615.955,1793.48C700.36,1786.17 763.883,1746 806.394,1672.55C810.509,1665.46 810.149,1661.73 801.996,1658.98C795.696,1656.84 789.318,1650.87 783.763,1651.72C778.542,1652.52 777.205,1661.78 773.758,1667.1C735.156,1726.77 680.403,1758.66 609.525,1762.67C604.382,1762.95 601.81,1763.85 602.581,1769.54C602.993,1772.7 602.659,1775.94 602.659,1779.15L602.659,1779.18Z" style="fill:rgb(238,238,238);fill-rule:nonzero;"/>
                    <path d="M596.126,1330.33C506.32,1337.94 440.663,1377.88 397.971,1454.24C395.168,1459.25 394.602,1462.29 401.006,1464.65C407.873,1467.17 414.765,1473.78 420.912,1472.96C427.547,1472.09 428.781,1461.72 432.742,1455.73C471.293,1397.38 525.428,1366.08 595.175,1362.14C601.707,1361.78 603.353,1359.83 602.761,1353.89C602.324,1349.44 602.247,1344.86 602.761,1340.44C603.687,1332.54 601.218,1328.86 596.126,1330.36L596.126,1330.33Z" style="fill:rgb(238,238,238);fill-rule:nonzero;"/>
                    <path d="M385.858,1562.38C370.556,1562.38 370.273,1562.38 371.559,1576.63C379.197,1660.6 419.291,1723.84 492.432,1766.12C499.479,1770.18 503.311,1769.97 506.063,1761.77C508.197,1755.47 514.215,1748.94 513.161,1743.59C512.338,1739.37 503.26,1736.87 497.936,1733.45C438.528,1695.19 406.664,1640.72 402.369,1570.25C402.009,1564.36 401.083,1561.27 394.499,1562.33C391.671,1562.77 388.739,1562.41 385.858,1562.41L385.858,1562.38Z" style="fill:rgb(238,238,238);fill-rule:nonzero;"/>
                </g>
            </g>
        </g>
        <clipPath id="_clip4">
            <rect id="battery-svgrepo-com.svg" x="1076.87" y="1454.39" width="826.278" height="826.278"/>
        </clipPath>
        <g clip-path="url(#_clip4)">
            <g>
                <g>
                    <g>
                        <path d="M1861.84,1619.65L1682.81,1619.65L1682.81,1495.7C1682.81,1488.12 1688.99,1481.93 1696.58,1481.93L1751.67,1481.93C1759.25,1481.93 1765.44,1488.12 1765.44,1495.7L1765.44,1509.48L1751.67,1509.48C1744.07,1509.48 1737.89,1515.65 1737.89,1523.25C1737.89,1530.85 1744.07,1537.02 1751.67,1537.02L1765.44,1537.02L1765.44,1564.56L1751.67,1564.56C1744.07,1564.56 1737.89,1570.73 1737.89,1578.33C1737.89,1585.93 1744.07,1592.1 1751.67,1592.1L1779.21,1592.1C1786.81,1592.1 1792.98,1585.93 1792.98,1578.33L1792.98,1495.7C1792.98,1472.93 1774.44,1454.39 1751.67,1454.39L1696.58,1454.39C1673.8,1454.39 1655.27,1472.93 1655.27,1495.7L1655.27,1627.72L1635.8,1647.19L1344.23,1647.19L1324.76,1627.72L1324.76,1495.7C1324.76,1472.93 1306.22,1454.39 1283.44,1454.39L1228.36,1454.39C1205.58,1454.39 1187.04,1472.93 1187.04,1495.7L1187.04,1578.33C1187.04,1585.93 1193.21,1592.1 1200.81,1592.1C1208.41,1592.1 1214.59,1585.93 1214.59,1578.33L1214.59,1495.7C1214.59,1488.12 1220.77,1481.93 1228.36,1481.93L1283.44,1481.93C1291.03,1481.93 1297.21,1488.12 1297.21,1495.7L1297.21,1509.48L1283.44,1509.48C1275.84,1509.48 1269.67,1515.65 1269.67,1523.25C1269.67,1530.85 1275.84,1537.02 1283.44,1537.02L1297.21,1537.02L1297.21,1564.56L1283.44,1564.56C1275.84,1564.56 1269.67,1570.73 1269.67,1578.33C1269.67,1585.93 1275.84,1592.1 1283.44,1592.1L1297.21,1592.1L1297.21,1619.65L1118.19,1619.65C1095.41,1619.65 1076.87,1638.18 1076.87,1660.96L1076.87,1716.05C1076.87,1733.98 1088.41,1749.11 1104.41,1754.81L1104.41,2211.81C1104.41,2249.78 1135.3,2280.67 1173.27,2280.67L1806.75,2280.67C1844.72,2280.67 1875.61,2249.78 1875.61,2211.81L1875.61,1798.67C1875.61,1791.07 1869.44,1784.9 1861.84,1784.9C1854.24,1784.9 1848.07,1791.07 1848.07,1798.67L1848.07,2211.81C1848.07,2234.59 1829.53,2253.13 1806.75,2253.13L1173.27,2253.13C1150.49,2253.13 1131.96,2234.59 1131.96,2211.81L1131.96,1743.59C1131.96,1735.99 1125.79,1729.82 1118.19,1729.82C1110.6,1729.82 1104.41,1723.63 1104.41,1716.05L1104.41,1660.96C1104.41,1653.37 1110.6,1647.19 1118.19,1647.19L1305.28,1647.19L1328.79,1670.7C1331.37,1673.27 1334.88,1674.73 1338.53,1674.73L1641.5,1674.73C1645.14,1674.73 1648.64,1673.27 1651.23,1670.7L1674.74,1647.19L1861.84,1647.19C1869.42,1647.19 1875.61,1653.37 1875.61,1660.96L1875.61,1716.05C1875.61,1723.63 1869.42,1729.82 1861.84,1729.82L1173.27,1729.82C1165.67,1729.82 1159.5,1735.99 1159.5,1743.59C1159.5,1751.19 1165.67,1757.36 1173.27,1757.36L1861.84,1757.36C1884.61,1757.36 1903.15,1738.82 1903.15,1716.04L1903.15,1660.96C1903.15,1638.18 1884.61,1619.65 1861.84,1619.65Z" style="fill:rgb(238,238,238);fill-rule:nonzero;stroke:rgb(238,238,238);stroke-width:4.84px;"/>
                        <path d="M1669.04,2005.24C1661.44,2005.24 1655.27,2011.41 1655.27,2019.01C1655.27,2026.62 1661.44,2032.78 1669.04,2032.78L1779.21,2032.78C1786.81,2032.78 1792.98,2026.62 1792.98,2019.01C1792.98,2011.41 1786.81,2005.24 1779.21,2005.24L1669.04,2005.24Z" style="fill:rgb(238,238,238);fill-rule:nonzero;stroke:rgb(238,238,238);stroke-width:4.84px;"/>
                        <path d="M1442.46,2169.01C1444.44,2170.02 1446.58,2170.5 1448.68,2170.5C1452.68,2170.5 1456.59,2168.76 1459.27,2165.54L1596.99,2000.29C1600.41,1996.18 1601.14,1990.47 1598.89,1985.63C1596.61,1980.8 1591.75,1977.7 1586.41,1977.7L1520.58,1977.7L1544.82,1856.46C1546.1,1850.1 1542.76,1843.71 1536.81,1841.13C1530.86,1838.55 1523.89,1840.49 1520.12,1845.76L1382.4,2038.56C1379.42,2042.76 1379,2048.27 1381.37,2052.87C1383.73,2057.44 1388.45,2060.33 1393.62,2060.33L1458.6,2060.33L1435.34,2153.38C1433.78,2159.62 1436.73,2166.11 1442.46,2169.01ZM1420.37,2032.79L1505.23,1913.98L1490.27,1988.77C1489.46,1992.82 1490.52,1997.01 1493.14,2000.21C1495.75,2003.4 1499.65,2005.25 1503.78,2005.25L1557.01,2005.25L1476.65,2101.66L1489.6,2049.91C1490.63,2045.79 1489.69,2041.42 1487.09,2038.09C1484.49,2034.74 1480.48,2032.79 1476.24,2032.79L1420.37,2032.79L1420.37,2032.79Z" style="fill:rgb(238,238,238);fill-rule:nonzero;stroke:rgb(238,238,238);stroke-width:4.84px;"/>
                        <path d="M1255.9,2087.87C1263.5,2087.87 1269.67,2081.7 1269.67,2074.1L1269.67,2032.79L1310.98,2032.79C1318.59,2032.79 1324.75,2026.62 1324.75,2019.02C1324.75,2011.41 1318.59,2005.25 1310.98,2005.25L1269.67,2005.25L1269.67,1963.93C1269.67,1956.33 1263.5,1950.16 1255.9,1950.16C1248.3,1950.16 1242.13,1956.33 1242.13,1963.93L1242.13,2005.25L1200.81,2005.25C1193.21,2005.25 1187.04,2011.41 1187.04,2019.02C1187.04,2026.62 1193.21,2032.79 1200.81,2032.79L1242.13,2032.79L1242.13,2074.1C1242.13,2081.7 1248.3,2087.87 1255.9,2087.87Z" style="fill:rgb(238,238,238);fill-rule:nonzero;stroke:rgb(238,238,238);stroke-width:4.84px;"/>
                    </g>
                </g>
            </g>
        </g>
    </g>
</svg>
