<?xml version="1.0" encoding="UTF-8" standalone="no"?>
<!DOCTYPE svg PUBLIC "-//W3C//DTD SVG 1.1//EN" "http://www.w3.org/Graphics/SVG/1.1/DTD/svg11.dtd">
<svg width="100%" height="100%" viewBox="0 0 13623 478" version="1.1" xmlns="http://www.w3.org/2000/svg" xmlns:xlink="http://www.w3.org/1999/xlink" xml:space="preserve" xmlns:serif="http://www.serif.com/" style="fill-rule:evenodd;clip-rule:evenodd;stroke-linejoin:round;stroke-miterlimit:2;">
    <g>
        <g>
            <g>
                <circle cx="13383.2" cy="239.036" r="238.91" style="fill:rgb(170,203,244);"/>
            </g>
            <clipPath id="_clip1">
                <rect id="car-svgrepo-com.svg" x="13219.4" y="75.186" width="327.701" height="327.701"/>
            </clipPath>
            <g clip-path="url(#_clip1)">
                <g>
                    <path d="M13287.2,276.703C13277.4,276.703 13269.4,284.698 13269.4,294.526C13269.4,304.354 13277.4,312.349 13287.2,312.349C13297,312.349 13305,304.353 13305,294.526C13305,284.699 13297,276.703 13287.2,276.703ZM13287.2,301.672C13283.3,301.672 13280,298.466 13280,294.526C13280,290.586 13283.3,287.38 13287.2,287.38C13291.1,287.38 13294.3,290.586 13294.3,294.526C13294.3,298.467 13291.1,301.672 13287.2,301.672Z" style="fill:rgb(38,48,105);fill-rule:nonzero;"/>
                    <path d="M13473.5,276.703C13463.7,276.703 13455.7,284.698 13455.7,294.526C13455.7,304.354 13463.7,312.349 13473.5,312.349C13483.3,312.349 13491.3,304.353 13491.3,294.526C13491.3,284.699 13483.3,276.703 13473.5,276.703ZM13473.5,301.672C13469.6,301.672 13466.4,298.466 13466.4,294.526C13466.4,290.586 13469.6,287.38 13473.5,287.38C13477.5,287.38 13480.7,290.586 13480.7,294.526C13480.7,298.467 13477.5,301.672 13473.5,301.672Z" style="fill:rgb(38,48,105);fill-rule:nonzero;"/>
                    <path d="M13510.7,214.998L13463,209.557L13437.6,168.232C13429.9,155.613 13415.8,147.774 13401,147.774L13314.5,147.774C13289.7,147.774 13267.7,164.515 13261.1,188.484L13260.4,190.937C13257.2,202.847 13247.7,212.328 13235.8,215.68C13226.2,218.412 13219.4,227.349 13219.4,237.415L13219.4,296.503C13219.4,299.451 13221.8,301.841 13224.7,301.841L13252.2,301.841C13255.6,318.069 13270,330.298 13287.2,330.298C13304.4,330.298 13318.8,318.069 13322.2,301.841L13438.5,301.841C13441.9,318.069 13456.3,330.298 13473.5,330.298C13490.7,330.298 13505.1,318.069 13508.5,301.841L13537.3,301.841C13540.1,301.841 13542.3,299.805 13542.6,297.108L13546.8,260.462C13549.4,237.967 13533.2,217.572 13510.7,214.998ZM13230.1,284.678L13252.8,284.678C13252.2,286.769 13251.8,288.936 13251.6,291.164L13230.1,291.164L13230.1,284.678ZM13287.2,319.621C13273.4,319.621 13262.1,308.364 13262.1,294.526C13262.1,280.689 13273.4,269.431 13287.2,269.431C13301,269.431 13312.3,280.689 13312.3,294.526C13312.3,308.364 13301,319.621 13287.2,319.621ZM13473.5,319.621C13459.7,319.621 13448.4,308.364 13448.4,294.526C13448.4,280.689 13459.7,269.431 13473.5,269.431C13487.4,269.431 13498.6,280.689 13498.6,294.526C13498.6,308.364 13487.4,319.621 13473.5,319.621ZM13473.5,258.754C13461.4,258.754 13450.7,264.79 13444.2,274.001L13349.2,274.001C13346.3,274.001 13343.9,276.391 13343.9,279.339C13343.9,282.287 13346.3,284.678 13349.2,284.678L13439.1,284.678C13438.5,286.769 13438.1,288.936 13437.9,291.164L13322.8,291.164C13321.1,273.011 13305.8,258.754 13287.2,258.754C13275.1,258.754 13264.4,264.79 13257.9,274.001L13230.1,274.001L13230.1,237.415C13230.1,232.108 13233.6,227.396 13238.7,225.956C13254.2,221.596 13266.5,209.263 13270.7,193.77L13271.4,191.318C13276.7,171.967 13294.5,158.451 13314.5,158.451L13401,158.451C13412.2,158.451 13422.7,164.343 13428.5,173.826L13455.3,217.363C13456.2,218.759 13457.6,219.683 13459.3,219.87L13509.5,225.606C13520.9,226.909 13530.1,234.386 13534.1,244.309L13517.5,244.309C13514.5,244.309 13512.1,246.7 13512.1,249.648C13512.1,252.596 13514.5,254.986 13517.5,254.986L13536.4,254.986C13536.4,256.392 13536.4,257.816 13536.2,259.252L13534.5,274.001L13502.8,274.001C13496.3,264.79 13485.6,258.754 13473.5,258.754ZM13509.1,291.164C13508.9,288.936 13508.5,286.769 13507.9,284.678L13533.3,284.678L13532.6,291.164L13509.1,291.164Z" style="fill:rgb(38,48,105);fill-rule:nonzero;"/>
                    <path d="M13401.3,228.381L13390.1,228.381C13387.1,228.381 13384.7,230.771 13384.7,233.719C13384.7,236.668 13387.1,239.058 13390.1,239.058L13401.3,239.058C13404.2,239.058 13406.6,236.668 13406.6,233.719C13406.6,230.771 13404.3,228.381 13401.3,228.381Z" style="fill:rgb(38,48,105);fill-rule:nonzero;"/>
                    <path d="M13329.6,233.719C13329.6,230.771 13327.2,228.381 13324.3,228.381L13313.1,228.381C13310.1,228.381 13307.7,230.771 13307.7,233.719C13307.7,236.668 13310.1,239.058 13313.1,239.058L13324.3,239.058C13327.2,239.058 13329.6,236.668 13329.6,233.719Z" style="fill:rgb(38,48,105);fill-rule:nonzero;"/>
                    <path d="M13336.2,277.295C13335.3,275.079 13332.9,273.687 13330.5,274.059C13328.3,274.396 13326.6,276.029 13326.1,278.17C13325,282.804 13330.4,286.402 13334.3,283.743C13336.4,282.337 13337.2,279.605 13336.2,277.295C13336.1,276.975 13336.4,277.622 13336.2,277.295Z" style="fill:rgb(38,48,105);fill-rule:nonzero;"/>
                    <path d="M13423,177.251C13418.3,169.68 13409.9,164.976 13401,164.976L13314.5,164.976C13297.4,164.976 13282.2,176.52 13277.7,193.052L13277,195.499C13275.3,201.874 13272.6,212.824 13272.4,213.288C13272.1,214.881 13272.4,216.566 13273.4,217.859C13274.4,219.151 13276,219.906 13277.6,219.906L13439.7,219.906C13441.6,219.906 13443.4,218.86 13444.3,217.172C13445.3,215.484 13445.2,213.417 13444.2,211.77L13423,177.251ZM13361.3,175.653L13361.3,209.228L13312.1,209.228L13312.1,175.76C13312.9,175.691 13313.7,175.653 13314.5,175.653L13361.3,175.653ZM13287.3,198.329L13288,195.879C13290,188.48 13295,182.47 13301.5,178.976L13301.5,209.227L13284.5,209.227C13285.4,205.674 13286.5,201.404 13287.3,198.329ZM13372,209.228L13372,175.653L13401,175.653C13406.2,175.653 13411.2,178.406 13413.9,182.842L13430.1,209.228L13372,209.228Z" style="fill:rgb(38,48,105);fill-rule:nonzero;"/>
                </g>
            </g>
        </g>
        <path d="M50.852,289.036L12928.7,289.036C12956.3,289.036 12978.7,266.632 12978.7,239.036C12978.7,211.441 12956.3,189.036 12928.7,189.036L50.852,189.036C23.256,189.036 0.852,211.441 0.852,239.036C0.852,266.632 23.256,289.036 50.852,289.036Z" style="fill:rgb(170,203,244);"/>
    </g>
</svg>
