<?xml version="1.0" encoding="UTF-8" standalone="no"?>
<!DOCTYPE svg PUBLIC "-//W3C//DTD SVG 1.1//EN" "http://www.w3.org/Graphics/SVG/1.1/DTD/svg11.dtd">
<svg width="100%" height="100%" viewBox="0 0 479 479" version="1.1" xmlns="http://www.w3.org/2000/svg" xmlns:xlink="http://www.w3.org/1999/xlink" xml:space="preserve" xmlns:serif="http://www.serif.com/" style="fill-rule:evenodd;clip-rule:evenodd;stroke-linecap:round;stroke-linejoin:round;stroke-miterlimit:2;">
    <path d="M461.525,241.195C461.525,118.46 362.007,19.025 239.355,19.025C116.62,19.025 17.185,118.46 17.185,241.195C17.185,352.058 98.402,443.981 204.641,460.629L204.641,305.43L148.223,305.43L148.223,241.209L204.641,241.209L204.641,192.234C204.641,136.566 237.758,105.824 288.524,105.824C312.838,105.824 338.29,110.156 338.29,110.156L338.29,164.824L310.227,164.824C282.678,164.824 274.069,181.972 274.069,199.538L274.069,241.195L335.679,241.195L325.779,305.416L274.069,305.416L274.069,460.616C380.225,443.967 461.525,352.044 461.525,241.181L461.525,241.195Z" style="fill:none;fill-rule:nonzero;stroke:rgb(238,238,238);stroke-width:23.89px;"/>
</svg>
