<?xml version="1.0" encoding="UTF-8" standalone="no"?>
<!DOCTYPE svg PUBLIC "-//W3C//DTD SVG 1.1//EN" "http://www.w3.org/Graphics/SVG/1.1/DTD/svg11.dtd">
<svg width="100%" height="100%" viewBox="0 0 2585 513" version="1.1" xmlns="http://www.w3.org/2000/svg" xmlns:xlink="http://www.w3.org/1999/xlink" xml:space="preserve" xmlns:serif="http://www.serif.com/" style="fill-rule:evenodd;clip-rule:evenodd;stroke-linejoin:round;stroke-miterlimit:2;">
    <g>
        <clipPath id="_clip1">
            <rect id="adjust-spanner-svgrepo-com.svg" x="0.178" y="17.285" width="477.819" height="477.819"/>
        </clipPath>
        <g clip-path="url(#_clip1)">
            <g>
                <g>
                    <path d="M250.406,275.235C246.693,271.518 240.665,271.517 236.946,275.233L231.294,280.885C227.577,284.602 227.576,290.629 231.293,294.346C233.151,296.205 235.588,297.135 238.023,297.135C240.459,297.135 242.895,296.206 244.753,294.349L250.406,288.696C254.123,284.98 254.124,278.952 250.406,275.235Z" style="fill:rgb(238,238,238);fill-rule:nonzero;stroke:rgb(238,238,238);stroke-width:0.93px;"/>
                </g>
            </g>
            <g>
                <g>
                    <path d="M462.072,85.285C460.635,82.653 458.04,80.852 455.072,80.426C452.108,80.001 449.107,80.996 446.986,83.116L362.693,167.409L327.854,132.57L412.147,48.277C414.269,46.157 415.264,43.161 414.838,40.192C414.411,37.223 412.61,34.63 409.979,33.191C385.728,19.947 357.215,14.719 329.694,18.469C301.244,22.346 275.451,35.154 255.098,55.506C230.435,80.169 216.853,112.959 216.853,147.837C216.853,157.516 217.903,167.034 219.942,176.262L20.678,375.527C-6.633,402.838 -6.633,447.276 20.678,474.587C33.909,487.818 51.498,495.105 70.209,495.105C88.919,495.105 106.51,487.818 119.741,474.588L319.072,275.257C328.402,277.318 337.916,278.352 347.43,278.352C380.868,278.352 414.305,265.623 439.761,240.168C460.114,219.815 472.92,194.021 476.799,165.573C480.548,138.053 475.318,109.54 462.072,85.285ZM106.279,461.127C96.645,470.762 83.834,476.067 70.209,476.067C56.585,476.067 43.775,470.762 34.14,461.127C14.251,441.239 14.251,408.877 34.14,388.989L226.318,196.81C228.95,203.323 232.114,209.619 235.788,215.643L51.366,400.066C39.281,412.152 39.281,431.816 51.367,443.902C57.41,449.945 65.347,452.966 73.284,452.966C81.22,452.966 89.159,449.945 95.202,443.902L215.683,323.421C219.4,319.704 219.4,313.677 215.683,309.959C211.966,306.243 205.939,306.242 202.221,309.959L81.739,430.44C77.077,435.105 69.489,435.103 64.826,430.44C60.163,425.778 60.163,418.191 64.826,413.527L247.026,231.328C249.569,234.376 252.256,237.329 255.097,240.169C267.888,252.96 282.697,262.535 298.505,268.898L106.279,461.127ZM426.298,226.707C382.809,270.196 312.048,270.196 268.559,226.707C247.491,205.64 235.89,177.631 235.89,147.838C235.89,118.044 247.491,90.035 268.559,68.968C289.924,47.603 318.691,36.406 347.705,36.406C361.725,36.406 375.809,39.024 389.134,44.372L307.665,125.84C303.947,129.557 303.947,135.584 307.665,139.301L355.963,187.601C357.748,189.385 360.17,190.388 362.694,190.388C365.218,190.388 367.639,189.385 369.425,187.601L450.893,106.132C467.309,147.028 457.988,195.017 426.298,226.707Z" style="fill:rgb(238,238,238);fill-rule:nonzero;"/>
                </g>
            </g>
        </g>
        <clipPath id="_clip2">
            <rect id="car-svgrepo-com.svg" x="679.557" y="0.195" width="512" height="512"/>
        </clipPath>
        <g clip-path="url(#_clip2)">
            <g>
                <path d="M785.489,315.046C770.134,315.046 757.642,327.537 757.642,342.892C757.642,358.247 770.134,370.738 785.489,370.738C800.843,370.738 813.335,358.246 813.335,342.892C813.335,327.538 800.843,315.046 785.489,315.046ZM785.489,354.057C779.332,354.057 774.324,349.048 774.324,342.892C774.324,336.737 779.332,331.728 785.489,331.728C791.645,331.728 796.653,336.735 796.653,342.892C796.653,349.049 791.645,354.057 785.489,354.057Z" style="fill:rgb(238,238,238);fill-rule:nonzero;"/>
                <path d="M1076.6,315.046C1061.24,315.046 1048.75,327.537 1048.75,342.892C1048.75,358.247 1061.24,370.738 1076.6,370.738C1091.95,370.738 1104.44,358.246 1104.44,342.892C1104.44,327.538 1091.95,315.046 1076.6,315.046ZM1076.6,354.057C1070.44,354.057 1065.43,349.048 1065.43,342.892C1065.43,336.737 1070.44,331.728 1076.6,331.728C1082.75,331.728 1087.76,336.735 1087.76,342.892C1087.76,349.049 1082.75,354.057 1076.6,354.057Z" style="fill:rgb(238,238,238);fill-rule:nonzero;"/>
                <path d="M1134.66,218.638L1060.25,210.136L1020.53,145.571C1008.4,125.855 986.486,113.607 963.338,113.607L828.22,113.607C789.38,113.607 755.052,139.762 744.742,177.212L743.687,181.044C738.564,199.653 723.842,214.465 705.265,219.703C690.129,223.971 679.557,237.935 679.557,253.662L679.557,345.98C679.557,350.587 683.292,354.321 687.898,354.321L730.778,354.321C736.068,379.675 758.588,398.781 785.489,398.781C812.389,398.781 834.909,379.675 840.199,354.321L1021.88,354.321C1027.18,379.675 1049.69,398.781 1076.6,398.781C1103.5,398.781 1126.02,379.675 1131.31,354.321L1176.32,354.321C1180.56,354.321 1184.13,351.14 1184.61,346.926L1191.14,289.671C1195.15,254.525 1169.82,222.659 1134.66,218.638ZM696.239,327.505L731.77,327.505C730.832,330.772 730.18,334.159 729.853,337.64L696.239,337.64L696.239,327.505ZM785.489,382.1C763.869,382.1 746.281,364.512 746.281,342.892C746.281,321.273 763.869,303.683 785.489,303.683C807.108,303.683 824.696,321.273 824.696,342.892C824.696,364.512 807.108,382.1 785.489,382.1ZM1076.6,382.1C1054.98,382.1 1037.39,364.512 1037.39,342.892C1037.39,321.273 1054.98,303.683 1076.6,303.683C1098.21,303.683 1115.8,321.273 1115.8,342.892C1115.8,364.512 1098.21,382.1 1076.6,382.1ZM1076.6,287.002C1057.7,287.002 1040.99,296.432 1030.86,310.823L882.435,310.823C877.829,310.823 874.094,314.558 874.094,319.164C874.094,323.77 877.829,327.505 882.435,327.505L1022.88,327.505C1021.94,330.772 1021.29,334.159 1020.96,337.64L841.124,337.64C838.467,309.276 814.535,287.002 785.489,287.002C766.597,287.002 749.877,296.432 739.756,310.823L696.239,310.823L696.239,253.662C696.239,245.371 701.813,238.008 709.792,235.759C733.956,228.946 753.106,209.677 759.771,185.471L760.825,181.64C769.148,151.406 796.863,130.289 828.22,130.289L963.338,130.289C980.735,130.289 997.204,139.494 1006.32,154.311L1048.16,222.332C1049.51,224.514 1051.78,225.958 1054.32,226.249L1132.77,235.212C1150.57,237.248 1164.96,248.929 1171.33,264.433L1145.29,264.433C1140.68,264.433 1136.95,268.168 1136.95,272.774C1136.95,277.381 1140.68,281.115 1145.29,281.115L1174.85,281.115C1174.9,283.312 1174.82,285.536 1174.57,287.78L1171.94,310.823L1122.33,310.823C1112.21,296.432 1095.49,287.002 1076.6,287.002ZM1132.23,337.64C1131.9,334.159 1131.25,330.772 1130.31,327.505L1170.03,327.505L1168.88,337.64L1132.23,337.64Z" style="fill:rgb(238,238,238);fill-rule:nonzero;"/>
                <path d="M963.775,239.547L946.248,239.547C941.642,239.547 937.907,243.281 937.907,247.887C937.907,252.494 941.642,256.228 946.248,256.228L963.775,256.228C968.381,256.228 972.116,252.494 972.116,247.887C972.116,243.281 968.383,239.547 963.775,239.547Z" style="fill:rgb(238,238,238);fill-rule:nonzero;"/>
                <path d="M851.764,247.887C851.764,243.281 848.029,239.547 843.423,239.547L825.896,239.547C821.29,239.547 817.555,243.281 817.555,247.887C817.555,252.494 821.29,256.228 825.896,256.228L843.423,256.228C848.029,256.228 851.764,252.494 851.764,247.887Z" style="fill:rgb(238,238,238);fill-rule:nonzero;"/>
                <path d="M862.095,315.97C860.634,312.508 856.915,310.333 853.171,310.914C849.78,311.441 847.03,313.993 846.261,317.338C844.597,324.578 852.991,330.198 859.095,326.045C862.326,323.847 863.586,319.579 862.095,315.97C861.884,315.47 862.307,316.482 862.095,315.97Z" style="fill:rgb(238,238,238);fill-rule:nonzero;"/>
                <path d="M997.638,159.662C990.375,147.833 977.233,140.484 963.339,140.484L828.217,140.484C801.43,140.484 777.759,158.519 770.653,184.349L769.604,188.172C766.859,198.132 762.633,215.241 762.454,215.965C761.839,218.454 762.404,221.088 763.985,223.107C765.566,225.126 767.987,226.306 770.552,226.306L1023.71,226.306C1026.74,226.306 1029.52,224.672 1031,222.034C1032.47,219.396 1032.4,216.168 1030.82,213.594L997.638,159.662ZM901.26,157.164L901.26,209.622L824.464,209.622L824.464,157.332C825.704,157.223 826.955,157.164 828.217,157.164L901.26,157.164ZM785.689,192.593L786.739,188.766C789.919,177.206 797.71,167.815 807.782,162.357L807.782,209.621L781.24,209.621C782.647,204.069 784.365,197.398 785.689,192.593ZM917.941,209.622L917.941,157.164L963.339,157.164C971.475,157.164 979.17,161.466 983.426,168.397L1008.79,209.622L917.941,209.622Z" style="fill:rgb(238,238,238);fill-rule:nonzero;"/>
            </g>
        </g>
        <clipPath id="_clip3">
            <rect id="tire-icon.svg" x="1393.12" y="17.285" width="512" height="477.819"/>
        </clipPath>
        <g clip-path="url(#_clip3)">
            <g id="Layer_1-2">
                <g>
                    <path d="M1464.54,477.545C1463.87,477.772 1463.71,477.872 1463.55,477.886C1454.5,478.303 1447.94,474.45 1443.88,466.327C1441.57,461.734 1439.1,457.213 1437.05,452.507C1435.71,449.45 1434.35,448.284 1431.22,450.374C1427.72,452.706 1421.72,453.203 1420.71,456.63C1419.86,459.53 1423.62,463.824 1425.38,467.478C1426.81,470.464 1428.31,473.407 1429.88,476.578C1419.24,474.929 1410.89,465.033 1410.39,453.658C1410.19,448.867 1410.59,444.047 1410.24,439.269C1409.98,435.8 1411.26,435.246 1414.4,435.26C1437.68,435.388 1460.97,435.331 1484.24,435.331C1509.12,435.331 1534.01,435.203 1558.89,435.445C1563.22,435.487 1564.05,434.165 1563.98,430.17C1563.74,418.269 1563.91,418.255 1551.79,418.255C1506.48,418.255 1461.15,418.198 1415.84,418.354C1411.7,418.354 1410.04,417.857 1410.19,413.079C1410.59,401.207 1410.31,401.193 1422.45,401.193C1461.9,401.193 1501.36,401.065 1540.8,401.349C1546.16,401.392 1547.13,399.856 1546.94,394.937C1546.55,384.145 1546.82,384.131 1536.28,384.131C1496.47,384.131 1456.66,383.989 1416.86,384.287C1411.09,384.33 1409.65,382.638 1410.25,377.306C1410.88,371.69 1409.64,365.946 1411.3,360.358C1414.03,351.159 1420.02,345.315 1430.3,342.031C1427.04,348.599 1424.38,354.244 1421.45,359.761C1420.16,362.178 1419.96,363.443 1422.85,364.936C1434.9,371.221 1434.83,371.334 1440.93,359.149C1443.15,354.713 1445.7,350.405 1447.49,345.798C1448.91,342.144 1451.09,341.064 1454.73,341.419C1457.71,341.704 1460.75,341.476 1464.68,341.476C1461.65,347.647 1459,353.476 1455.93,359.064C1454.27,362.093 1454.07,363.529 1457.73,365.292C1469.17,370.808 1469.07,371.007 1474.67,359.818C1475.78,357.6 1476.89,355.382 1478,353.164C1482.11,344.945 1489.02,341.135 1498.72,341.732C1495.66,347.889 1492.8,353.917 1489.67,359.803C1488.35,362.277 1488.34,363.5 1491.15,364.95C1503.17,371.192 1503.12,371.306 1509.21,359.093C1511.18,355.126 1513.49,351.287 1515.01,347.149C1516.77,342.358 1519.77,340.609 1524.64,341.462C1528.6,342.159 1530.54,340.851 1529.84,336.471C1529.51,334.395 1529.88,332.206 1529.75,330.087C1529.61,327.613 1531.13,324.343 1526.6,323.817C1525.76,323.717 1525.12,321.571 1524.48,320.305C1520.74,312.869 1516.97,305.447 1513.33,297.954C1512.29,295.793 1511.47,295.224 1508.95,296.347C1496.21,302.02 1496.17,301.907 1502.43,314.405C1503.99,317.533 1505.54,320.675 1507.19,324.002C1506.31,324.187 1505.84,324.286 1505.37,324.386C1495.56,326.391 1489.56,322.694 1486.5,312.954C1484.83,307.622 1481.47,302.817 1479.07,297.684C1478.1,295.622 1477.08,294.854 1475.07,296.29C1474.93,296.39 1474.76,296.461 1474.6,296.546C1470.69,298.594 1464.99,299.774 1463.44,302.959C1462.28,305.362 1466.37,310.367 1468.19,314.177C1469.55,317.049 1471.03,319.864 1472.51,322.808C1463.18,322.111 1454.3,312.67 1453.23,301.85C1452.66,296.035 1453.13,290.134 1452.96,284.276C1452.85,280.352 1455.71,281.816 1457.41,281.802C1479.81,281.717 1502.2,281.66 1524.59,281.83C1528.52,281.859 1530.03,281.191 1529.9,276.783C1529.57,264.683 1529.81,264.683 1517.87,264.683C1497.79,264.683 1477.7,264.584 1457.62,264.769C1454.03,264.797 1452.83,264.114 1452.89,260.233C1453.08,247.621 1452.89,247.621 1465.46,247.621C1491.05,247.621 1516.64,247.536 1542.24,247.707C1545.88,247.735 1547,246.981 1546.94,243.143C1546.76,230.559 1546.94,230.559 1534.36,230.559C1508.77,230.559 1483.17,230.474 1457.58,230.645C1453.91,230.673 1452.58,229.891 1452.92,226.052C1453.29,221.815 1452.92,217.521 1453.02,213.27C1453.27,201.568 1460.31,192.525 1472.78,188.743C1469.74,194.943 1467.15,200.573 1464.19,206.019C1462.71,208.72 1462.7,209.943 1465.82,211.507C1477.63,217.422 1477.55,217.578 1483.49,205.734C1484.6,203.516 1485.72,201.312 1486.83,199.094C1490.82,191.113 1497.63,187.487 1507.25,188.217C1504.09,194.516 1501.09,200.673 1497.92,206.744C1496.81,208.862 1496.91,209.872 1499.26,211.166C1511.56,217.934 1511.51,218.019 1517.77,205.478C1518.72,203.573 1519.91,201.739 1520.53,199.734C1523.61,189.483 1529.85,184.876 1541.1,188.701C1538.26,194.402 1535.31,200.516 1532.14,206.516C1530.91,208.862 1531.11,209.943 1533.64,211.294C1545.74,217.72 1545.69,217.806 1551.76,205.677C1554.14,200.928 1556.61,196.208 1558.82,191.374C1559.98,188.8 1561.42,187.322 1564.43,187.862C1565.64,188.075 1566.92,187.89 1568.16,187.89C1582.28,187.89 1582.22,187.89 1581.03,173.473C1580.86,171.411 1580.34,170.715 1578.28,170.772C1573.66,170.899 1569.03,170.572 1564.43,170.899C1561.39,171.113 1560.03,169.862 1558.82,167.331C1555.25,159.809 1551.41,152.416 1547.78,144.923C1546.63,142.534 1545.59,141.155 1542.69,142.961C1538.97,145.278 1533.12,146.33 1531.7,149.501C1530.57,152.003 1534.69,156.909 1536.52,160.733C1538.04,163.89 1539.64,167.018 1541.54,170.828C1536.95,170.828 1532.94,170.644 1528.96,170.885C1526.29,171.042 1525.73,169.236 1524.88,167.516C1521.15,160.065 1517.34,152.657 1513.79,145.136C1512.49,142.392 1511.44,141.496 1508.3,143.046C1496.43,148.875 1496.37,148.733 1502.27,160.534C1503.85,163.691 1505.44,166.833 1507.45,170.814C1502.61,170.814 1498.3,170.772 1494.01,170.828C1491.83,170.857 1491.58,169.051 1490.9,167.715C1487.07,160.122 1483.23,152.529 1479.54,144.866C1478.34,142.392 1477.22,141.212 1474.4,142.989C1470.71,145.321 1464.52,145.975 1463.43,149.473C1462.5,152.458 1466.45,156.966 1468.29,160.79C1469.81,163.947 1471.4,167.061 1473.27,170.828C1468.66,170.828 1464.63,170.658 1460.64,170.885C1457.95,171.042 1457.44,169.165 1456.59,167.459C1452.78,159.852 1448.94,152.259 1445.24,144.61C1444.13,142.307 1443.24,141.581 1440.48,142.861C1428.07,148.634 1428.01,148.52 1434.04,160.577C1435.46,163.421 1436.89,166.264 1438.36,169.165C1429.84,169.535 1419.7,158.387 1419.05,147.795C1418.7,142.122 1419.01,136.42 1418.85,130.747C1418.78,128.529 1419.7,127.975 1421.67,128.145C1422.9,128.259 1424.15,128.159 1425.39,128.159C1515.14,128.159 1604.88,128.117 1694.63,128.287C1699.66,128.287 1700.66,126.837 1700.52,122.188C1700.19,111.097 1700.42,111.097 1689.1,111.097C1600.94,111.097 1512.81,111.041 1424.65,111.225C1419.61,111.225 1418.64,109.747 1418.78,105.112C1419.11,94.036 1418.88,94.036 1430.21,94.036C1529.56,94.036 1628.9,94.092 1728.24,93.879C1733.87,93.879 1735.08,95.486 1734.63,100.576C1734.18,105.51 1734.7,110.529 1734.47,115.491C1734.33,118.548 1734.87,119.742 1738.41,119.742C1751.6,119.742 1751.6,119.913 1751.6,106.69C1751.6,91.59 1751.64,76.476 1751.6,61.376C1751.46,35.812 1733.13,17.342 1707.6,17.328C1620.34,17.271 1533.08,17.271 1445.82,17.328C1420.26,17.342 1401.89,35.755 1401.8,61.362C1401.72,87.31 1402.57,113.287 1401.55,139.193C1400.62,162.667 1413.7,185.445 1444.2,188.36C1436.26,198.767 1435.7,210.668 1435.83,222.91C1436.08,246.726 1435.9,270.541 1435.9,294.357C1435.9,307.807 1437.07,312.215 1443.89,324.073C1438.4,324.997 1432.97,324.172 1427.67,325.253C1408.39,329.163 1393.63,345.742 1393.39,365.363C1393.03,394.866 1393,424.369 1393.39,453.857C1393.67,476.294 1412.31,494.849 1434.82,494.934C1496.48,495.19 1558.15,495.019 1619.83,495.105C1622.8,495.105 1623.64,494.365 1623.68,491.322C1623.84,477.972 1623.95,477.972 1610.81,477.972C1603.89,477.972 1596.95,477.787 1590.03,478.057C1587.03,478.171 1585.6,477.062 1584.39,474.502C1580.83,466.981 1576.9,459.63 1573.39,452.08C1572,449.08 1570.56,448.639 1567.79,450.303C1564.18,452.492 1558.63,453.545 1557.22,456.616C1556.13,459.004 1560.07,463.725 1561.83,467.379C1563.42,470.692 1565.1,473.976 1567.09,477.972C1562.51,477.972 1558.52,477.787 1554.54,478.028C1551.88,478.185 1551.3,476.408 1550.44,474.687C1546.73,467.237 1542.91,459.829 1539.34,452.308C1538.06,449.606 1537.06,448.611 1533.88,450.175C1521.98,456.004 1521.91,455.876 1527.81,467.663C1529.38,470.82 1530.98,473.962 1533.01,477.972C1528.19,477.972 1523.88,477.929 1519.59,477.986C1517.41,478.014 1517.14,476.237 1516.46,474.886C1512.64,467.294 1508.81,459.701 1505.1,452.037C1503.92,449.606 1502.85,448.326 1500,450.118C1496.29,452.436 1490.44,453.502 1489.02,456.673C1487.9,459.203 1492.01,464.08 1493.85,467.905C1495.38,471.061 1496.97,474.189 1498.84,477.972C1494.25,477.972 1490.24,477.801 1486.26,478.028C1483.59,478.185 1483.05,476.365 1482.18,474.644C1478.45,467.194 1474.64,459.786 1471.09,452.265C1469.8,449.507 1468.62,448.369 1465.6,450.217C1461.99,452.421 1456.23,453.374 1454.88,456.417C1453.47,459.573 1457.92,463.81 1459.6,467.677C1461.01,470.905 1462.73,473.99 1464.52,477.545L1464.54,477.545ZM1727.3,42.324C1730.62,45.821 1732.52,49.447 1733.63,53.613C1735.18,59.4 1733.94,65.315 1734.55,71.116C1735.07,75.893 1733.56,77.158 1728.65,77.158C1631.26,77.002 1533.86,77.059 1436.47,76.988C1430.68,76.988 1424.85,77.784 1419.09,76.448C1419.04,70.078 1418.72,63.694 1419.01,57.338C1419.42,48.125 1428.42,36.011 1438.32,36.053C1436.85,38.968 1435.27,41.755 1434.02,44.67C1432.36,48.537 1427.89,52.76 1429.29,55.931C1430.62,58.973 1436.4,59.912 1440,62.13C1443.01,63.978 1444.17,62.826 1445.47,60.068C1449.02,52.547 1452.85,45.139 1456.56,37.688C1457.41,35.968 1457.97,34.162 1460.64,34.319C1464.62,34.56 1468.63,34.376 1473.27,34.376C1469.92,41.044 1467.17,47.158 1463.84,52.959C1461.55,56.968 1464.65,57.907 1466.82,58.234C1470.99,58.874 1474.36,66.58 1479.01,60.58C1482.31,56.329 1484.07,50.869 1486.53,45.964C1490.63,37.793 1497.2,33.963 1506.25,34.475C1506.39,34.475 1506.54,34.603 1507.09,34.902C1505.45,38.158 1503.82,41.442 1502.17,44.712C1496.29,56.485 1496.33,56.4 1508.29,62.158C1510.96,63.438 1512.19,63.281 1513.52,60.48C1517.13,52.788 1521.14,45.267 1524.78,37.589C1525.93,35.172 1527.28,34.12 1530.03,34.305C1533.64,34.546 1537.28,34.361 1541.47,34.361C1539.48,38.385 1537.8,41.67 1536.19,44.982C1534.43,48.637 1530.49,53.385 1531.6,55.746C1533.04,58.817 1538.6,59.841 1542.19,62.044C1545.03,63.765 1546.39,63.153 1547.77,60.21C1551.38,52.518 1555.32,44.968 1559.09,37.347C1559.88,35.726 1560.48,34.205 1562.83,34.319C1566.85,34.504 1570.89,34.376 1575.58,34.376C1573.66,38.215 1572.01,41.499 1570.38,44.783C1564.5,56.513 1564.56,56.414 1576.58,62.201C1579.38,63.552 1580.51,63.082 1581.77,60.424C1585.42,52.746 1589.29,45.167 1593.1,37.561C1593.87,36.039 1594.25,34.219 1596.71,34.333C1600.85,34.504 1605,34.376 1609.7,34.376C1607.74,38.286 1606.12,41.414 1604.61,44.584C1602.79,48.395 1598.68,53.4 1599.87,55.817C1601.41,59.016 1607.22,60.011 1611,62.286C1613.6,63.864 1614.67,62.997 1615.78,60.623C1618.11,55.646 1621.33,50.983 1622.94,45.807C1625.95,36.025 1632.03,32.414 1641.82,34.39C1642.29,34.489 1642.76,34.589 1643.63,34.774C1641.89,38.271 1640.22,41.542 1638.62,44.855C1636.86,48.509 1633.11,52.774 1633.95,55.717C1634.93,59.158 1640.94,59.656 1644.42,61.973C1647.52,64.049 1648.86,62.912 1650.27,59.869C1653.78,52.319 1657.63,44.926 1661.4,37.504C1662.08,36.167 1662.33,34.347 1664.5,34.361C1668.81,34.404 1673.12,34.361 1677.97,34.361C1675.98,38.328 1674.26,41.414 1672.85,44.627C1671.15,48.494 1666.73,52.731 1668.1,55.888C1669.42,58.916 1675.19,59.883 1678.81,62.087C1681.81,63.921 1682.99,62.826 1684.29,60.054C1687.85,52.518 1691.64,45.11 1695.41,37.688C1696.02,36.494 1696.21,34.546 1697.87,34.489C1702.25,34.361 1707.34,32.897 1710.75,35.2C1712.46,36.352 1708.41,40.802 1707.36,43.916C1707.24,44.243 1707,44.527 1706.84,44.855C1705.11,48.523 1701.33,52.803 1702.19,55.717C1703.2,59.144 1709.2,59.642 1712.7,61.973C1715.86,64.078 1717.17,62.826 1718.53,59.826C1721.16,54.04 1724.19,48.438 1727.26,42.324L1727.3,42.324Z" style="fill:rgb(238,238,238);fill-rule:nonzero;"/>
                    <path d="M1905.12,315.57C1904.89,216.753 1824.23,136.434 1725.53,136.747C1626.68,137.06 1546.4,217.806 1546.82,316.466C1547.24,415.127 1627.63,495.176 1726.15,495.048C1824.93,494.905 1905.33,414.274 1905.12,315.57ZM1580.94,316.168C1580.94,314.931 1580.77,313.651 1580.97,312.442C1581.66,308.276 1580.04,306.784 1575.85,307.295C1573.05,307.637 1570.16,307.253 1567.33,307.395C1564.93,307.523 1563.75,307.068 1564.2,304.196C1565.1,298.594 1565.76,292.949 1566.32,287.29C1566.74,283.295 1567.96,282.157 1572.32,283.494C1583.47,286.921 1583.37,286.579 1586.77,275.219C1587.94,271.309 1587.64,269.404 1583.26,268.821C1580.47,268.451 1577.78,267.385 1575.03,266.731C1572.71,266.19 1571.68,265.238 1572.79,262.678C1575.35,256.849 1577.73,250.934 1580.14,245.034C1580.97,243.015 1581.99,242.389 1584.05,243.725C1587.17,245.744 1590.44,247.536 1593.67,249.399C1594.92,250.124 1596.07,250.849 1597.13,248.901C1599.41,244.692 1603.53,240.669 1603.7,236.432C1603.82,233.531 1597.42,232.18 1594.08,229.905C1593.64,229.607 1593.17,229.351 1592.68,229.138C1590.59,228.228 1590.15,227.09 1591.67,225.142C1594.19,221.943 1596.44,218.516 1598.97,215.303C1605.28,207.298 1605.31,207.327 1612.35,214.365C1613.36,215.374 1614.42,216.313 1615.35,217.393C1616.61,218.858 1617.51,219.014 1619.2,217.607C1630.21,208.422 1630.25,208.478 1620.45,198.312C1620.21,198.056 1619.97,197.786 1619.68,197.573C1617.77,196.123 1617.94,194.843 1619.81,193.421C1623.91,190.293 1627.85,186.98 1631.98,183.909C1637.52,179.814 1637.56,179.885 1640.9,185.658C1642.14,187.805 1643.49,189.895 1644.62,192.099C1645.48,193.748 1646.1,194.36 1648.19,193.379C1661.25,187.293 1661.29,187.364 1654.52,175.108C1654.35,174.795 1654.21,174.468 1653.99,174.198C1652.27,172.094 1653.04,170.871 1655.34,169.947C1660.76,167.771 1666.24,165.696 1671.51,163.207C1675.19,161.473 1676.2,162.696 1677.1,166.264C1680.1,178.179 1680.21,178.051 1692.21,174.852C1695.51,173.971 1696.72,173.046 1695.58,169.151C1691.99,156.909 1692.21,156.838 1704.98,155.075C1717.38,153.354 1717.56,153.354 1717.34,166.023C1717.27,169.961 1718.17,171.383 1722.23,170.928C1726.07,170.501 1731.26,172.179 1733.55,170.231C1736.26,167.914 1734.48,162.582 1734.4,158.586C1734.31,155.018 1734.88,153.397 1738.98,154.25C1743.3,155.146 1747.78,155.345 1752.17,155.942C1759.74,156.951 1759.74,156.98 1757.86,164.032C1757.26,166.264 1756.63,168.468 1755.97,170.686C1755.36,172.734 1755.84,173.629 1758.13,174.411C1771.29,178.919 1771.34,179.032 1774.95,165.767C1775.75,162.824 1776.53,161.459 1779.88,163.037C1785.16,165.525 1790.62,167.629 1796.05,169.776C1798.71,170.828 1799.36,171.824 1797.73,174.71C1795.59,178.449 1790.69,182.445 1792.35,186.07C1793.87,189.383 1799.5,190.762 1803.23,193.137C1805.11,194.345 1806.19,194.345 1807.28,192.127C1808.94,188.8 1811.04,185.701 1812.8,182.431C1813.75,180.667 1814.6,180.099 1816.39,181.506C1821.56,185.559 1826.79,189.525 1832.05,193.45C1833.94,194.857 1834,195.995 1832.22,197.601C1829.59,199.976 1827.12,202.549 1824.67,205.109C1823.82,206.004 1821.97,206.801 1823.7,208.493C1827.26,211.948 1830.32,216.697 1834.57,218.317C1836.95,219.227 1840,213.512 1842.91,210.981C1843.45,210.512 1843.98,210.028 1844.42,209.474C1845.73,207.839 1846.85,207.796 1848.17,209.559C1852.12,214.806 1856.12,220.009 1860.2,225.156C1861.71,227.062 1861.27,228.085 1859.21,229.152C1855.91,230.858 1852.75,232.849 1849.51,234.683C1848.19,235.436 1847.45,235.877 1848.29,237.882C1853.76,250.82 1854.7,251.233 1866.43,244.607C1866.88,244.351 1867.38,244.109 1867.79,243.797C1869.7,242.361 1870.87,242.958 1871.73,245.019C1873.45,249.1 1875.37,253.095 1877.02,257.204C1880.43,265.693 1880.39,265.721 1871.7,267.982C1869.98,268.423 1868.28,268.878 1866.56,269.333C1864.85,269.788 1864.08,270.456 1864.42,272.631C1866.54,286.636 1866.78,286.864 1880.05,283.423C1880.56,283.295 1881.07,283.11 1881.57,282.968C1883.62,282.342 1884.77,282.655 1885.06,285.214C1885.72,291.385 1886.56,297.542 1887.63,303.656C1888.2,306.911 1886.99,307.409 1884.06,307.48C1879.72,307.58 1873.75,305.333 1871.48,308.476C1869.36,311.404 1871.09,317.035 1870.91,321.471C1870.81,323.774 1871.48,324.613 1873.87,324.485C1877.4,324.286 1880.97,324.528 1884.53,324.4C1886.88,324.315 1888.17,324.642 1887.68,327.571C1886.75,333.343 1886.08,339.173 1885.41,344.988C1885.01,348.4 1883.95,350.107 1880.08,348.5C1877.16,347.277 1873.97,346.708 1870.88,345.926C1869.51,345.585 1868.15,345.13 1867.67,347.334C1866.64,351.983 1863.9,356.889 1864.77,361.083C1865.36,363.969 1871.66,363.358 1875.26,364.794C1875.91,365.05 1876.64,365.107 1877.33,365.263C1879.57,365.775 1880.02,366.969 1879.11,369.088C1876.58,374.932 1874.19,380.847 1871.78,386.733C1870.95,388.723 1869.91,389.392 1867.85,388.069C1864.72,386.065 1861.41,384.344 1858.25,382.382C1856.56,381.33 1855.69,381.543 1854.46,383.264C1846.12,394.937 1846.07,394.908 1858.24,402.145C1858.4,402.231 1858.55,402.316 1858.72,402.387C1861.33,403.354 1861.85,404.719 1859.96,407.037C1857.71,409.781 1855.82,412.809 1853.65,415.61C1849,421.553 1844.07,421.909 1838.85,416.677C1838.09,415.923 1837.3,415.212 1836.6,414.402C1835.38,412.966 1834.48,412.695 1832.75,414.146C1821.67,423.359 1821.63,423.302 1831.44,433.454C1831.68,433.71 1831.92,433.98 1832.21,434.193C1834.08,435.615 1834.07,436.867 1832.13,438.317C1828.59,440.99 1825.24,443.905 1821.68,446.549C1814.43,451.938 1814.4,451.895 1810,444.288C1809.12,442.753 1808.04,441.303 1807.34,439.696C1806.37,437.464 1805.2,437.307 1803.31,438.644C1799.58,441.274 1793.42,442.269 1792.28,446.094C1791.43,448.98 1795.65,453.388 1797.63,457.113C1797.71,457.27 1797.81,457.426 1797.92,457.554C1799.63,459.616 1798.98,460.839 1796.62,461.777C1791.03,463.995 1785.4,466.17 1779.95,468.715C1776.68,470.237 1775.82,469.142 1774.98,466.057C1771.49,453.161 1771.42,453.289 1758.71,457.156C1756.02,457.966 1755.27,458.962 1756.11,461.564C1757.15,464.763 1757.9,468.047 1758.88,471.275C1759.58,473.592 1759.19,474.772 1756.42,475.057C1750.61,475.654 1744.78,476.365 1739.05,477.488C1735.01,478.284 1734.21,476.863 1734.45,473.208C1734.71,469.341 1735.88,464.18 1733.93,461.876C1731.63,459.132 1726.27,461.421 1722.3,460.867C1718.33,460.327 1717.28,461.663 1717.35,465.701C1717.59,478.583 1717.41,478.597 1704.53,476.621C1696.36,475.37 1693.34,470.701 1695.47,462.616C1695.61,462.104 1695.82,461.606 1695.98,461.109C1696.59,459.104 1696.19,458.194 1693.82,457.426C1680.57,453.118 1680.6,453.004 1676.96,465.971C1676.91,466.142 1676.88,466.327 1676.87,466.497C1676.43,469.682 1674.91,470.009 1672.11,468.744C1666.96,466.398 1661.7,464.279 1656.41,462.275C1653.3,461.094 1652.44,459.744 1654.48,456.658C1656.69,453.303 1660.41,449.123 1659.75,446.137C1658.97,442.582 1653.03,441.772 1649.64,439.269C1647.08,437.378 1645.51,437.407 1644.08,440.535C1642.76,443.421 1640.84,446.037 1639.43,448.895C1638.33,451.142 1637.2,451.753 1635.07,450.061C1630.06,446.094 1625,442.198 1619.9,438.345C1618.05,436.952 1617.88,435.829 1619.68,434.193C1622.44,431.691 1625,428.961 1627.63,426.317C1628.47,425.478 1629.71,424.696 1628.26,423.302C1624.68,419.876 1621.63,415.098 1617.38,413.463C1614.99,412.553 1611.94,418.255 1609.02,420.786C1608.62,421.141 1608.21,421.497 1607.9,421.923C1606.35,423.999 1605,424.013 1603.39,421.866C1599.58,416.733 1595.7,411.658 1591.75,406.653C1590.24,404.747 1590.64,403.709 1592.68,402.629C1595.98,400.894 1599.1,398.847 1602.4,397.126C1604.24,396.16 1604.32,395.321 1603.39,393.458C1597.06,380.747 1597.12,380.719 1584.99,387.444C1584.68,387.614 1584.38,387.799 1584.1,388.027C1582.19,389.534 1581.04,388.837 1580.19,386.804C1578.39,382.567 1576.42,378.401 1574.71,374.121C1571.53,366.116 1571.6,366.088 1580.2,363.813C1581.92,363.358 1583.63,362.889 1585.33,362.42C1587.01,361.979 1587.84,361.41 1587.5,359.178C1585.32,345.102 1585.04,344.846 1571.84,348.329C1571.33,348.472 1570.83,348.656 1570.32,348.827C1568.23,349.538 1567.13,349.126 1566.86,346.58C1566.39,342.002 1565.37,337.481 1564.92,332.902C1564.08,324.457 1564.18,324.443 1572.68,324.443C1581.18,324.443 1580.97,324.443 1580.97,316.182L1580.94,316.168Z" style="fill:rgb(238,238,238);fill-rule:nonzero;"/>
                    <path d="M1725.78,409.724C1777.65,409.667 1819.86,367.609 1819.78,316.082C1819.69,263.688 1777.69,221.986 1725.09,222.071C1673.99,222.142 1632.11,264.555 1632.13,316.224C1632.13,367.51 1674.48,409.795 1725.78,409.738L1725.78,409.724ZM1689.31,383.15C1684.42,380.761 1680.44,377.519 1676.3,374.463C1673.29,372.23 1673.81,370.894 1676.42,368.59C1688.15,358.211 1696.95,345.656 1703.06,331.211C1706.05,324.158 1705.02,320.916 1698.61,317.049C1683.94,308.205 1668.03,303.243 1650.87,301.807C1651.16,296.418 1653.31,291.726 1654.82,286.864C1655.87,283.494 1657.21,283.096 1660.35,284.944C1674.14,293.077 1689.1,297.755 1705.09,298.836C1712.13,299.319 1714.76,297.2 1716.36,290.447C1719.3,277.878 1719.8,265.209 1718.53,252.37C1718.12,248.147 1713.91,242.801 1718.03,239.943C1721.59,237.484 1727.35,239.161 1732.14,239.275C1735.32,239.346 1735.88,240.654 1735.19,243.64C1731.63,259.11 1731.92,274.608 1735.51,290.049C1737.18,297.286 1739.63,299.347 1746.95,298.836C1762.95,297.698 1777.89,293.006 1791.7,284.887C1794.53,283.224 1795.93,283.238 1796.9,286.537C1798.04,290.433 1799.35,294.3 1800.63,298.153C1801.57,300.968 1800.87,301.921 1797.65,302.234C1781.55,303.798 1766.53,308.859 1752.74,317.39C1747.12,320.86 1745.99,324.329 1748.49,330.357C1753.42,342.272 1760.55,352.765 1768.95,362.519C1771.82,365.846 1778.55,367.766 1776.97,372.557C1775.64,376.538 1770.07,378.842 1765.95,381.316C1764.91,381.941 1763.83,382.482 1762.59,383.164C1756.17,367.652 1746.97,354.329 1734.54,343.324C1727.36,336.969 1724.43,336.997 1717.27,343.41C1704.91,354.457 1695.74,367.78 1689.31,383.136L1689.31,383.15ZM1789.68,358.424C1780.65,350.874 1773.57,342.173 1768.18,332.092C1767.4,330.628 1766.05,329.234 1768.68,327.969C1778.49,323.263 1788.74,320.234 1799.56,319.111C1801.65,318.897 1802.87,319.111 1802.59,321.798C1801.2,334.993 1797.41,347.291 1789.68,358.424ZM1665.84,268.408C1674.13,257.844 1684.35,250.266 1696.48,245.019C1699.98,243.498 1699.92,245.744 1700.33,247.82C1702.28,257.659 1702.68,267.527 1701.51,277.508C1701.13,280.721 1699.9,281.304 1697.08,280.736C1686.01,278.546 1675.63,274.721 1665.84,268.408ZM1662.2,358.467C1654.58,347.206 1650.65,334.907 1649.33,321.627C1649.03,318.67 1650.74,318.954 1652.56,319.153C1663.05,320.277 1673.05,323.177 1682.6,327.67C1685,328.793 1685.03,329.917 1683.88,332.007C1678.36,342.073 1671.34,350.874 1662.2,358.467ZM1786.08,268.437C1776.33,274.693 1766.01,278.574 1754.99,280.665C1753.29,280.992 1751.05,282.044 1750.59,278.759C1749.11,267.953 1749.61,257.247 1751.82,246.583C1752.21,244.65 1753.04,243.967 1755.13,244.877C1767.36,250.138 1777.75,257.73 1786.08,268.437ZM1726.19,392.676C1720.12,392.776 1714.18,391.851 1708.25,390.6C1706.06,390.131 1705.11,389.52 1706.2,387.088C1710.6,377.278 1716.45,368.491 1723.88,360.713C1725.51,358.993 1726.55,359.121 1728.13,360.785C1735.39,368.462 1741.22,377.036 1745.55,386.69C1746.67,389.193 1746.29,390.088 1743.6,390.629C1737.84,391.78 1732.08,392.733 1726.19,392.676Z" style="fill:rgb(238,238,238);fill-rule:nonzero;"/>
                    <path d="M1845.7,315.883C1854.26,315.883 1854.43,315.869 1853.75,308.134C1849.57,261.47 1827.24,226.436 1786.57,203.047C1782.61,200.772 1780.88,201.497 1779.44,205.535C1778.2,209.004 1774.88,212.587 1775.39,215.616C1775.94,218.815 1781.15,219.54 1784.2,221.531C1817.01,242.816 1834.52,272.958 1836.7,311.945C1836.88,315.258 1837.71,316.381 1840.92,315.926C1842.49,315.698 1844.11,315.883 1845.71,315.883L1845.7,315.883Z" style="fill:rgb(238,238,238);fill-rule:nonzero;"/>
                    <path d="M1725.97,435.757C1725.97,444.118 1725.98,444.303 1733.32,443.663C1779.98,439.625 1815.1,417.416 1838.6,376.809C1840.88,372.884 1840.68,370.823 1836.17,369.301C1832.69,368.121 1829.16,364.823 1826.09,365.292C1823.2,365.732 1822.47,370.851 1820.56,373.794C1799.22,406.781 1768.95,424.411 1729.76,426.629C1726.92,426.786 1725.5,427.283 1725.92,430.426C1726.15,432.174 1725.97,433.966 1725.97,435.743L1725.97,435.757Z" style="fill:rgb(238,238,238);fill-rule:nonzero;"/>
                    <path d="M1722.36,187.606C1672.7,191.815 1636.41,213.896 1612.8,256.11C1611.25,258.882 1610.94,260.56 1614.48,261.868C1618.28,263.261 1622.09,266.915 1625.49,266.461C1629.15,265.977 1629.84,260.247 1632.03,256.934C1653.34,224.673 1683.27,207.369 1721.83,205.194C1725.44,204.995 1726.35,203.914 1726.02,200.63C1725.78,198.17 1725.74,195.639 1726.02,193.194C1726.54,188.829 1725.17,186.796 1722.36,187.62L1722.36,187.606Z" style="fill:rgb(238,238,238);fill-rule:nonzero;"/>
                    <path d="M1606.11,315.897C1597.65,315.897 1597.49,315.897 1598.2,323.774C1602.42,370.197 1624.59,405.16 1665.03,428.535C1668.92,430.781 1671.04,430.667 1672.56,426.132C1673.74,422.648 1677.07,419.037 1676.49,416.079C1676.03,413.748 1671.01,412.368 1668.07,410.477C1635.23,389.321 1617.61,359.206 1615.24,320.248C1615.04,316.992 1614.52,315.286 1610.88,315.869C1609.32,316.111 1607.7,315.912 1606.11,315.912L1606.11,315.897Z" style="fill:rgb(238,238,238);fill-rule:nonzero;"/>
                </g>
            </g>
        </g>
        <clipPath id="_clip4">
            <rect id="battery-svgrepo-com.svg" x="2106.68" y="17.285" width="477.819" height="477.819"/>
        </clipPath>
        <g clip-path="url(#_clip4)">
            <g>
                <g>
                    <g>
                        <path d="M2560.61,112.849L2457.08,112.849L2457.08,41.176C2457.08,36.788 2460.65,33.213 2465.04,33.213L2496.89,33.213C2501.28,33.213 2504.86,36.788 2504.86,41.176L2504.86,49.14L2496.89,49.14C2492.5,49.14 2488.93,52.707 2488.93,57.103C2488.93,61.498 2492.5,65.066 2496.89,65.066L2504.86,65.066L2504.86,80.994L2496.89,80.994C2492.5,80.994 2488.93,84.562 2488.93,88.957C2488.93,93.353 2492.5,96.921 2496.89,96.921L2512.82,96.921C2517.22,96.921 2520.79,93.353 2520.79,88.957L2520.79,41.176C2520.79,28.004 2510.07,17.285 2496.89,17.285L2465.04,17.285C2451.87,17.285 2441.15,28.004 2441.15,41.176L2441.15,117.516L2429.89,128.777L2261.28,128.777L2250.02,117.516L2250.02,41.176C2250.02,28.004 2239.3,17.285 2226.13,17.285L2194.28,17.285C2181.11,17.285 2170.39,28.004 2170.39,41.176L2170.39,88.958C2170.39,93.354 2173.95,96.922 2178.35,96.922C2182.74,96.922 2186.31,93.354 2186.31,88.958L2186.31,41.176C2186.31,36.788 2189.89,33.213 2194.28,33.213L2226.13,33.213C2230.52,33.213 2234.1,36.788 2234.1,41.176L2234.1,49.14L2226.13,49.14C2221.74,49.14 2218.17,52.707 2218.17,57.103C2218.17,61.498 2221.74,65.066 2226.13,65.066L2234.1,65.066L2234.1,80.994L2226.13,80.994C2221.74,80.994 2218.17,84.562 2218.17,88.957C2218.17,93.353 2221.74,96.921 2226.13,96.921L2234.1,96.921L2234.1,112.849L2130.57,112.849C2117.4,112.849 2106.68,123.568 2106.68,136.74L2106.68,168.594C2106.68,178.963 2113.35,187.716 2122.6,191.012L2122.6,455.286C2122.6,477.241 2140.47,495.105 2162.42,495.105L2528.75,495.105C2550.71,495.105 2568.57,477.242 2568.57,455.286L2568.57,216.376C2568.57,211.981 2565,208.413 2560.61,208.413C2556.21,208.413 2552.64,211.981 2552.64,216.376L2552.64,455.286C2552.64,468.458 2541.92,479.177 2528.75,479.177L2162.42,479.177C2149.25,479.177 2138.53,468.458 2138.53,455.286L2138.53,184.522C2138.53,180.126 2134.96,176.559 2130.57,176.559C2126.18,176.559 2122.6,172.983 2122.6,168.595L2122.6,136.74C2122.6,132.352 2126.18,128.777 2130.57,128.777L2238.76,128.777L2252.36,142.37C2253.85,143.86 2255.88,144.703 2257.99,144.703L2433.19,144.703C2435.3,144.703 2437.32,143.859 2438.82,142.37L2452.41,128.777L2560.61,128.777C2564.99,128.777 2568.57,132.352 2568.57,136.74L2568.57,168.594C2568.57,172.982 2564.99,176.558 2560.61,176.558L2162.42,176.558C2158.03,176.558 2154.46,180.126 2154.46,184.521C2154.46,188.917 2158.03,192.484 2162.42,192.484L2560.61,192.484C2573.78,192.484 2584.5,181.765 2584.5,168.593L2584.5,136.74C2584.5,123.568 2573.78,112.849 2560.61,112.849Z" style="fill:rgb(238,238,238);fill-rule:nonzero;stroke:rgb(238,238,238);stroke-width:2.8px;"/>
                        <path d="M2449.11,335.831C2444.72,335.831 2441.15,339.399 2441.15,343.794C2441.15,348.19 2444.72,351.758 2449.11,351.758L2512.82,351.758C2517.22,351.758 2520.79,348.19 2520.79,343.794C2520.79,339.399 2517.22,335.831 2512.82,335.831L2449.11,335.831Z" style="fill:rgb(238,238,238);fill-rule:nonzero;stroke:rgb(238,238,238);stroke-width:2.8px;"/>
                        <path d="M2318.09,430.535C2319.23,431.117 2320.47,431.396 2321.69,431.396C2324,431.396 2326.26,430.393 2327.81,428.529L2407.45,332.965C2409.43,330.592 2409.85,327.287 2408.55,324.492C2407.23,321.697 2404.42,319.905 2401.33,319.905L2363.26,319.905L2377.28,249.794C2378.02,246.115 2376.09,242.419 2372.65,240.93C2369.21,239.433 2365.18,240.556 2363,243.605L2283.36,355.097C2281.63,357.526 2281.39,360.711 2282.76,363.371C2284.12,366.015 2286.86,367.687 2289.84,367.687L2327.42,367.687L2313.97,421.498C2313.07,425.104 2314.78,428.855 2318.09,430.535ZM2305.31,351.759L2354.39,283.056L2345.74,326.307C2345.27,328.649 2345.88,331.07 2347.39,332.918C2348.91,334.765 2351.16,335.832 2353.55,335.832L2384.33,335.832L2337.86,391.586L2345.35,361.659C2345.94,359.278 2345.4,356.753 2343.9,354.825C2342.39,352.89 2340.07,351.76 2337.62,351.76L2305.31,351.76L2305.31,351.759Z" style="fill:rgb(238,238,238);fill-rule:nonzero;stroke:rgb(238,238,238);stroke-width:2.8px;"/>
                        <path d="M2210.2,383.613C2214.6,383.613 2218.17,380.045 2218.17,375.65L2218.17,351.759L2242.06,351.759C2246.45,351.759 2250.02,348.191 2250.02,343.795C2250.02,339.4 2246.45,335.832 2242.06,335.832L2218.17,335.832L2218.17,311.941C2218.17,307.546 2214.6,303.978 2210.2,303.978C2205.81,303.978 2202.24,307.546 2202.24,311.941L2202.24,335.832L2178.35,335.832C2173.95,335.832 2170.39,339.4 2170.39,343.795C2170.39,348.191 2173.95,351.759 2178.35,351.759L2202.24,351.759L2202.24,375.65C2202.24,380.045 2205.81,383.613 2210.2,383.613Z" style="fill:rgb(238,238,238);fill-rule:nonzero;stroke:rgb(238,238,238);stroke-width:2.8px;"/>
                    </g>
                </g>
            </g>
        </g>
    </g>
</svg>
