<?xml version="1.0" encoding="UTF-8" standalone="no"?>
<!DOCTYPE svg PUBLIC "-//W3C//DTD SVG 1.1//EN" "http://www.w3.org/Graphics/SVG/1.1/DTD/svg11.dtd">
<svg width="100%" height="100%" viewBox="0 0 4928 479" version="1.1" xmlns="http://www.w3.org/2000/svg" xmlns:xlink="http://www.w3.org/1999/xlink" xml:space="preserve" xmlns:serif="http://www.serif.com/" style="fill-rule:evenodd;clip-rule:evenodd;stroke-linejoin:round;stroke-miterlimit:2;">
    <g>
        <g>
            <circle cx="4688.76" cy="239.124" r="238.91" style="fill:rgb(170,203,244);"/>
            <path d="M4184.25,189.124L50.604,189.124C23.008,189.124 0.604,211.528 0.604,239.124C0.604,266.72 23.008,289.124 50.604,289.124L4184.25,289.124C4211.85,289.124 4234.25,266.72 4234.25,239.124C4234.25,211.528 4211.85,189.124 4184.25,189.124Z" style="fill:rgb(170,203,244);"/>
        </g>
        <clipPath id="_clip1">
            <rect id="car-svgrepo-com.svg" x="4524.91" y="75.273" width="327.701" height="327.701"/>
        </clipPath>
        <g clip-path="url(#_clip1)">
            <g>
                <path d="M4592.71,276.791C4582.88,276.791 4574.88,284.786 4574.88,294.614C4574.88,304.442 4582.88,312.436 4592.71,312.436C4602.53,312.436 4610.53,304.441 4610.53,294.614C4610.53,284.787 4602.53,276.791 4592.71,276.791ZM4592.71,301.759C4588.77,301.759 4585.56,298.553 4585.56,294.614C4585.56,290.674 4588.77,287.468 4592.71,287.468C4596.65,287.468 4599.85,290.673 4599.85,294.614C4599.85,298.554 4596.65,301.759 4592.71,301.759Z" style="fill:rgb(38,48,105);fill-rule:nonzero;"/>
                <path d="M4779.03,276.791C4769.2,276.791 4761.2,284.786 4761.2,294.614C4761.2,304.442 4769.2,312.436 4779.03,312.436C4788.85,312.436 4796.85,304.441 4796.85,294.614C4796.85,284.787 4788.85,276.791 4779.03,276.791ZM4779.03,301.759C4775.09,301.759 4771.88,298.553 4771.88,294.614C4771.88,290.674 4775.09,287.468 4779.03,287.468C4782.97,287.468 4786.17,290.673 4786.17,294.614C4786.17,298.554 4782.97,301.759 4779.03,301.759Z" style="fill:rgb(38,48,105);fill-rule:nonzero;"/>
                <path d="M4816.19,215.086L4768.56,209.644L4743.14,168.32C4735.38,155.701 4721.35,147.862 4706.54,147.862L4620.06,147.862C4595.2,147.862 4573.23,164.602 4566.63,188.572L4565.95,191.024C4562.67,202.935 4553.25,212.415 4541.36,215.768C4531.67,218.5 4524.91,227.437 4524.91,237.502L4524.91,296.59C4524.91,299.539 4527.3,301.929 4530.24,301.929L4557.69,301.929C4561.07,318.156 4575.49,330.385 4592.71,330.385C4609.92,330.385 4624.34,318.156 4627.72,301.929L4744.01,301.929C4747.4,318.156 4761.81,330.385 4779.03,330.385C4796.24,330.385 4810.66,318.156 4814.04,301.929L4842.86,301.929C4845.57,301.929 4847.85,299.892 4848.16,297.195L4852.34,260.55C4854.91,238.055 4838.69,217.66 4816.19,215.086ZM4535.58,284.765L4558.32,284.765C4557.72,286.856 4557.31,289.024 4557.1,291.252L4535.58,291.252L4535.58,284.765ZM4592.71,319.708C4578.87,319.708 4567.61,308.451 4567.61,294.614C4567.61,280.776 4578.87,269.518 4592.71,269.518C4606.54,269.518 4617.8,280.776 4617.8,294.614C4617.8,308.451 4606.54,319.708 4592.71,319.708ZM4779.03,319.708C4765.19,319.708 4753.93,308.451 4753.93,294.614C4753.93,280.776 4765.19,269.518 4779.03,269.518C4792.86,269.518 4804.12,280.776 4804.12,294.614C4804.12,308.451 4792.86,319.708 4779.03,319.708ZM4779.03,258.841C4766.94,258.841 4756.23,264.878 4749.76,274.088L4654.76,274.088C4651.81,274.088 4649.42,276.478 4649.42,279.427C4649.42,282.375 4651.81,284.765 4654.76,284.765L4744.65,284.765C4744.05,286.856 4743.63,289.024 4743.42,291.252L4628.32,291.252C4626.61,273.098 4611.3,258.841 4592.71,258.841C4580.61,258.841 4569.91,264.878 4563.44,274.088L4535.58,274.088L4535.58,237.502C4535.58,232.196 4539.15,227.484 4544.26,226.044C4559.72,221.683 4571.98,209.351 4576.25,193.858L4576.92,191.406C4582.25,172.055 4599.99,158.539 4620.06,158.539L4706.54,158.539C4717.67,158.539 4728.21,164.431 4734.05,173.914L4760.83,217.45C4761.69,218.847 4763.14,219.771 4764.77,219.957L4814.98,225.694C4826.37,226.997 4835.58,234.474 4839.66,244.397L4822.99,244.397C4820.05,244.397 4817.65,246.787 4817.65,249.735C4817.65,252.684 4820.05,255.074 4822.99,255.074L4841.91,255.074C4841.95,256.48 4841.9,257.903 4841.73,259.34L4840.05,274.088L4808.3,274.088C4801.82,264.878 4791.12,258.841 4779.03,258.841ZM4814.64,291.252C4814.43,289.024 4814.01,286.856 4813.41,284.765L4838.83,284.765L4838.09,291.252L4814.64,291.252Z" style="fill:rgb(38,48,105);fill-rule:nonzero;"/>
                <path d="M4706.82,228.468L4695.6,228.468C4692.65,228.468 4690.26,230.859 4690.26,233.807C4690.26,236.755 4692.65,239.145 4695.6,239.145L4706.82,239.145C4709.77,239.145 4712.15,236.755 4712.15,233.807C4712.15,230.859 4709.77,228.468 4706.82,228.468Z" style="fill:rgb(38,48,105);fill-rule:nonzero;"/>
                <path d="M4635.12,233.807C4635.12,230.859 4632.73,228.468 4629.79,228.468L4618.57,228.468C4615.62,228.468 4613.23,230.859 4613.23,233.807C4613.23,236.755 4615.62,239.145 4618.57,239.145L4629.79,239.145C4632.73,239.145 4635.12,236.755 4635.12,233.807Z" style="fill:rgb(38,48,105);fill-rule:nonzero;"/>
                <path d="M4641.74,277.382C4640.8,275.167 4638.42,273.774 4636.03,274.147C4633.86,274.484 4632.1,276.117 4631.6,278.258C4630.54,282.892 4635.91,286.489 4639.82,283.831C4641.89,282.424 4642.69,279.692 4641.74,277.382C4641.6,277.062 4641.87,277.71 4641.74,277.382Z" style="fill:rgb(38,48,105);fill-rule:nonzero;"/>
                <path d="M4728.49,177.339C4723.84,169.768 4715.43,165.064 4706.54,165.064L4620.05,165.064C4602.91,165.064 4587.76,176.607 4583.21,193.14L4582.54,195.587C4580.78,201.962 4578.08,212.912 4577.96,213.375C4577.57,214.968 4577.93,216.654 4578.94,217.946C4579.95,219.238 4581.51,219.994 4583.15,219.994L4745.18,219.994C4747.11,219.994 4748.9,218.948 4749.84,217.26C4750.78,215.571 4750.74,213.505 4749.73,211.858L4728.49,177.339ZM4666.81,175.74L4666.81,209.315L4617.65,209.315L4617.65,175.848C4618.45,175.778 4619.25,175.74 4620.05,175.74L4666.81,175.74ZM4592.83,198.416L4593.51,195.967C4595.54,188.568 4600.53,182.557 4606.98,179.064L4606.98,209.314L4589.99,209.314C4590.89,205.761 4591.99,201.492 4592.83,198.416ZM4677.48,209.315L4677.48,175.74L4706.54,175.74C4711.74,175.74 4716.67,178.494 4719.39,182.929L4735.63,209.315L4677.48,209.315Z" style="fill:rgb(38,48,105);fill-rule:nonzero;"/>
            </g>
        </g>
    </g>
</svg>
