<?xml version="1.0" encoding="UTF-8" standalone="no"?>
<!DOCTYPE svg PUBLIC "-//W3C//DTD SVG 1.1//EN" "http://www.w3.org/Graphics/SVG/1.1/DTD/svg11.dtd">
<svg width="100%" height="100%" viewBox="0 0 513 513" version="1.1" xmlns="http://www.w3.org/2000/svg" xmlns:xlink="http://www.w3.org/1999/xlink" xml:space="preserve" xmlns:serif="http://www.serif.com/" style="fill-rule:evenodd;clip-rule:evenodd;stroke-linejoin:round;stroke-miterlimit:2;">
    <clipPath id="_clip1">
        <rect id="adjust-spanner-svgrepo-com.svg" x="0.445" y="0.523" width="512" height="512"/>
    </clipPath>
    <g clip-path="url(#_clip1)">
        <g>
            <g>
                <path d="M268.573,276.925C264.594,272.942 258.135,272.941 254.15,276.923L248.093,282.979C244.11,286.962 244.109,293.42 248.092,297.403C250.083,299.395 252.694,300.392 255.304,300.392C257.914,300.392 260.524,299.396 262.515,297.406L268.573,291.349C272.555,287.367 272.556,280.908 268.573,276.925Z" style="fill:rgb(238,238,238);fill-rule:nonzero;stroke:rgb(238,238,238);stroke-width:1px;"/>
            </g>
        </g>
        <g>
            <g>
                <path d="M495.38,73.387C493.84,70.567 491.06,68.637 487.879,68.18C484.703,67.725 481.488,68.791 479.215,71.063L388.892,161.386L351.561,124.055L441.884,33.732C444.157,31.46 445.224,28.25 444.767,25.068C444.31,21.887 442.38,19.108 439.56,17.567C413.575,3.375 383.022,-2.227 353.532,1.791C323.047,5.946 295.409,19.67 273.6,41.478C247.173,67.905 232.619,103.041 232.619,140.414C232.619,150.785 233.744,160.984 235.929,170.872L22.411,384.391C-6.854,413.656 -6.854,461.273 22.411,490.538C36.588,504.715 55.436,512.523 75.485,512.523C95.534,512.523 114.383,504.715 128.56,490.539L342.15,276.949C352.148,279.157 362.342,280.265 372.537,280.265C408.367,280.265 444.196,266.626 471.473,239.35C493.282,217.541 507.004,189.901 511.16,159.418C515.178,129.93 509.574,99.377 495.38,73.387ZM114.135,476.115C103.812,486.439 90.085,492.124 75.485,492.124C60.886,492.124 47.16,486.439 36.836,476.115C15.524,454.804 15.524,420.127 36.836,398.816L242.761,192.89C245.582,199.869 248.972,206.615 252.909,213.07L55.294,410.686C42.345,423.636 42.345,444.707 55.295,457.658C61.771,464.133 70.275,467.37 78.78,467.37C87.284,467.37 95.791,464.133 102.266,457.658L231.366,328.558C235.349,324.575 235.349,318.117 231.366,314.133C227.383,310.151 220.925,310.15 216.941,314.133L87.84,443.233C82.844,448.231 74.714,448.229 69.717,443.233C64.721,438.237 64.721,430.107 69.717,425.11L264.951,229.877C267.676,233.143 270.555,236.307 273.599,239.351C287.305,253.057 303.173,263.317 320.112,270.135L114.135,476.115ZM457.047,224.926C410.447,271.526 334.624,271.526 288.024,224.926C265.449,202.352 253.018,172.339 253.018,140.415C253.018,108.49 265.449,78.477 288.024,55.903C310.917,33.01 341.742,21.012 372.832,21.012C387.855,21.012 402.946,23.817 417.224,29.547L329.927,116.843C325.944,120.826 325.944,127.284 329.927,131.267L381.681,183.022C383.593,184.934 386.188,186.009 388.893,186.009C391.598,186.009 394.192,184.934 396.105,183.022L483.401,95.725C500.992,139.547 491.004,190.969 457.047,224.926Z" style="fill:rgb(238,238,238);fill-rule:nonzero;"/>
            </g>
        </g>
    </g>
</svg>
