<?xml version="1.0" encoding="UTF-8" standalone="no"?>
<!DOCTYPE svg PUBLIC "-//W3C//DTD SVG 1.1//EN" "http://www.w3.org/Graphics/SVG/1.1/DTD/svg11.dtd">
<svg width="100%" height="100%" viewBox="0 0 513 479" version="1.1" xmlns="http://www.w3.org/2000/svg" xmlns:xlink="http://www.w3.org/1999/xlink" xml:space="preserve" xmlns:serif="http://www.serif.com/" style="fill-rule:evenodd;clip-rule:evenodd;stroke-linejoin:round;stroke-miterlimit:2;">
    <clipPath id="_clip1">
        <rect id="tire-icon.svg" x="0.365" y="0.568" width="512" height="477.819"/>
    </clipPath>
    <g clip-path="url(#_clip1)">
        <g id="Layer_1-2">
            <g>
                <path d="M71.784,460.827C71.116,461.055 70.959,461.155 70.803,461.169C61.75,461.586 55.191,457.733 51.125,449.609C48.821,445.017 46.347,440.495 44.3,435.789C42.963,432.732 41.598,431.566 38.47,433.656C34.973,435.988 28.973,436.486 27.963,439.912C27.11,442.813 30.864,447.107 32.627,450.761C34.063,453.747 35.556,456.69 37.134,459.861C26.484,458.211 18.138,448.315 17.641,436.941C17.442,432.149 17.84,427.329 17.484,422.552C17.228,419.083 18.508,418.528 21.65,418.542C44.925,418.67 68.215,418.613 91.49,418.613C116.372,418.613 141.254,418.485 166.136,418.727C170.473,418.77 171.297,417.448 171.226,413.452C170.985,401.552 171.155,401.537 159.041,401.537C113.728,401.537 68.4,401.48 23.086,401.637C18.949,401.637 17.285,401.139 17.442,396.362C17.84,384.49 17.555,384.475 29.698,384.475C69.153,384.475 108.609,384.347 148.051,384.632C153.411,384.674 154.378,383.139 154.193,378.219C153.795,367.428 154.065,367.413 143.529,367.413C103.718,367.413 63.907,367.271 24.11,367.57C18.337,367.613 16.901,365.921 17.498,360.589C18.124,354.972 16.887,349.228 18.551,343.64C21.28,334.441 27.266,328.598 37.546,325.313C34.29,331.882 31.631,337.527 28.702,343.043C27.409,345.46 27.209,346.726 30.096,348.219C42.153,354.503 42.082,354.617 48.181,342.432C50.399,337.996 52.945,333.688 54.736,329.081C56.158,325.427 58.333,324.346 61.973,324.702C64.959,324.986 68.002,324.759 71.926,324.759C68.897,330.929 66.253,336.759 63.182,342.347C61.518,345.375 61.319,346.811 64.973,348.574C76.419,354.091 76.319,354.29 81.921,343.1C83.03,340.882 84.139,338.664 85.248,336.446C89.362,328.228 96.268,324.417 105.964,325.015C102.908,331.171 100.05,337.2 96.922,343.086C95.599,345.56 95.585,346.783 98.4,348.233C110.415,354.475 110.372,354.589 116.458,342.375C118.434,338.408 120.737,334.569 122.259,330.432C124.022,325.64 127.022,323.891 131.884,324.744C135.851,325.441 137.785,324.133 137.088,319.754C136.761,317.678 137.131,315.488 137.003,313.37C136.861,310.896 138.382,307.626 133.847,307.1C133.008,307 132.368,304.853 131.728,303.588C127.989,296.151 124.221,288.73 120.581,281.236C119.543,279.075 118.718,278.507 116.202,279.63C103.462,285.303 103.419,285.189 109.675,297.687C111.239,300.815 112.789,303.957 114.439,307.284C113.557,307.469 113.088,307.569 112.619,307.668C102.808,309.673 96.808,305.976 93.751,296.237C92.073,290.905 88.718,286.099 86.315,280.966C85.348,278.905 84.324,278.137 82.32,279.573C82.177,279.672 82.007,279.744 81.85,279.829C77.94,281.876 72.239,283.056 70.689,286.241C69.523,288.644 73.618,293.649 75.438,297.46C76.803,300.332 78.282,303.147 79.76,306.09C70.433,305.393 61.547,295.952 60.48,285.132C59.912,279.317 60.381,273.416 60.21,267.559C60.096,263.634 62.954,265.099 64.66,265.085C87.054,264.999 109.448,264.942 131.842,265.113C135.766,265.141 137.273,264.473 137.145,260.065C136.818,247.966 137.06,247.966 125.117,247.966C105.04,247.966 84.95,247.866 64.874,248.051C61.276,248.079 60.082,247.397 60.139,243.515C60.324,230.904 60.139,230.904 72.708,230.904C98.301,230.904 123.894,230.819 149.487,230.989C153.127,231.018 154.25,230.264 154.193,226.425C154.008,213.842 154.193,213.842 141.61,213.842C116.017,213.842 90.424,213.757 64.831,213.927C61.163,213.956 59.826,213.174 60.167,209.335C60.537,205.098 60.167,200.804 60.267,196.552C60.523,184.851 67.561,175.808 80.03,172.026C76.988,178.225 74.4,183.856 71.443,189.301C69.964,192.003 69.95,193.225 73.063,194.789C84.879,200.704 84.793,200.861 90.737,189.017C91.846,186.799 92.969,184.595 94.078,182.377C98.069,174.396 104.874,170.77 114.495,171.5C111.339,177.799 108.339,183.955 105.168,190.026C104.059,192.145 104.159,193.154 106.505,194.448C118.804,201.216 118.761,201.301 125.017,188.761C125.97,186.856 127.164,185.021 127.775,183.017C130.861,172.765 137.103,168.159 148.349,171.983C145.506,177.685 142.562,183.799 139.392,189.799C138.155,192.145 138.354,193.225 140.885,194.576C152.984,201.003 152.942,201.088 159.013,188.96C161.387,184.211 163.861,179.491 166.065,174.656C167.231,172.083 168.667,170.604 171.681,171.144C172.89,171.358 174.17,171.173 175.407,171.173C189.525,171.173 189.468,171.173 188.274,156.756C188.103,154.694 187.592,153.997 185.53,154.054C180.909,154.182 176.274,153.855 171.681,154.182C168.639,154.395 167.274,153.144 166.065,150.613C162.496,143.092 158.657,135.698 155.032,128.205C153.88,125.817 152.842,124.437 149.942,126.243C146.216,128.561 140.373,129.613 138.951,132.784C137.813,135.286 141.937,140.191 143.771,144.016C145.292,147.172 146.885,150.3 148.79,154.111C144.197,154.111 140.188,153.926 136.207,154.168C133.534,154.324 132.979,152.518 132.126,150.798C128.401,143.348 124.59,135.94 121.036,128.419C119.742,125.674 118.69,124.779 115.548,126.328C103.675,132.158 103.618,132.016 109.519,143.817C111.097,146.973 112.69,150.116 114.695,154.097C109.86,154.097 105.552,154.054 101.258,154.111C99.083,154.139 98.827,152.334 98.144,150.997C94.32,143.405 90.481,135.812 86.784,128.148C85.59,125.674 84.466,124.494 81.651,126.272C77.954,128.603 71.77,129.257 70.675,132.755C69.751,135.741 73.703,140.248 75.537,144.073C77.059,147.229 78.651,150.343 80.514,154.111C75.907,154.111 71.883,153.94 67.888,154.168C65.201,154.324 64.689,152.447 63.836,150.741C60.025,143.134 56.186,135.542 52.49,127.892C51.381,125.589 50.485,124.864 47.726,126.144C35.314,131.916 35.257,131.802 41.286,143.86C42.707,146.703 44.143,149.547 45.608,152.447C37.091,152.817 26.954,141.67 26.3,131.077C25.944,125.404 26.257,119.703 26.1,114.03C26.029,111.812 26.954,111.257 28.916,111.428C30.153,111.541 31.404,111.442 32.641,111.442C122.387,111.442 212.132,111.399 301.878,111.57C306.911,111.57 307.907,110.12 307.764,105.47C307.437,94.38 307.665,94.38 296.347,94.38C208.194,94.38 120.055,94.323 31.902,94.508C26.854,94.508 25.887,93.029 26.029,88.394C26.356,77.318 26.129,77.318 37.461,77.318C136.804,77.318 236.147,77.375 335.49,77.162C341.121,77.162 342.329,78.768 341.874,83.858C341.433,88.792 341.945,93.811 341.718,98.773C341.575,101.83 342.116,103.025 345.656,103.025C358.851,103.025 358.851,103.195 358.851,89.972C358.851,74.872 358.893,59.758 358.851,44.659C358.709,19.094 340.381,0.625 314.845,0.61C227.588,0.554 140.33,0.554 53.073,0.61C27.508,0.625 9.138,19.037 9.053,44.644C8.967,70.593 9.821,96.57 8.797,122.475C7.873,145.95 20.953,168.727 51.452,171.642C43.504,182.05 42.949,193.951 43.077,206.192C43.333,230.008 43.148,253.824 43.148,277.639C43.148,291.09 44.314,295.497 51.139,307.355C45.651,308.28 40.219,307.455 34.916,308.536C15.636,312.446 0.877,329.024 0.636,348.645C0.28,378.148 0.252,407.651 0.636,437.14C0.92,459.576 19.56,478.131 42.068,478.216C103.732,478.472 165.397,478.302 227.076,478.387C230.047,478.387 230.886,477.648 230.929,474.605C231.085,461.254 231.199,461.254 218.061,461.254C211.137,461.254 204.199,461.069 197.274,461.339C194.274,461.453 192.852,460.344 191.644,457.785C188.075,450.263 184.151,442.912 180.639,435.363C179.245,432.363 177.809,431.922 175.037,433.585C171.425,435.775 165.88,436.827 164.473,439.898C163.378,442.287 167.316,447.007 169.079,450.661C170.672,453.974 172.35,457.259 174.34,461.254C169.762,461.254 165.767,461.069 161.785,461.311C159.127,461.467 158.544,459.69 157.691,457.97C153.98,450.519 150.155,443.112 146.586,435.59C145.306,432.889 144.311,431.893 141.126,433.457C129.226,439.287 129.154,439.159 135.055,450.946C136.633,454.102 138.226,457.244 140.259,461.254C135.439,461.254 131.131,461.211 126.837,461.268C124.662,461.297 124.391,459.519 123.709,458.169C119.884,450.576 116.059,442.984 112.348,435.32C111.168,432.889 110.102,431.609 107.244,433.4C103.533,435.718 97.689,436.784 96.268,439.955C95.144,442.486 99.253,447.363 101.102,451.188C102.623,454.344 104.216,457.472 106.092,461.254C101.5,461.254 97.49,461.083 93.509,461.311C90.836,461.467 90.296,459.647 89.429,457.927C85.703,450.477 81.893,443.069 78.338,435.547C77.045,432.789 75.864,431.652 72.85,433.5C69.239,435.704 63.48,436.656 62.13,439.699C60.722,442.856 65.172,447.093 66.85,450.96C68.258,454.188 69.978,457.273 71.77,460.827L71.784,460.827ZM334.552,25.606C337.865,29.104 339.77,32.73 340.879,36.895C342.429,42.682 341.192,48.597 341.803,54.398C342.315,59.176 340.808,60.441 335.902,60.441C238.507,60.285 141.112,60.341 43.717,60.27C37.93,60.27 32.101,61.067 26.342,59.73C26.285,53.36 25.972,46.976 26.257,40.621C26.669,31.407 35.669,19.293 45.565,19.336C44.101,22.251 42.523,25.037 41.271,27.952C39.608,31.82 35.143,36.042 36.537,39.213C37.873,42.256 43.646,43.194 47.243,45.412C50.257,47.261 51.423,46.109 52.717,43.351C56.272,35.829 60.096,28.421 63.807,20.971C64.66,19.251 65.215,17.445 67.888,17.601C71.869,17.843 75.879,17.658 80.514,17.658C77.172,24.327 74.414,30.44 71.087,36.241C68.798,40.251 71.898,41.189 74.073,41.516C78.239,42.156 81.609,49.863 86.258,43.862C89.557,39.611 91.32,34.151 93.779,29.246C97.874,21.075 104.448,17.246 113.5,17.758C113.642,17.758 113.785,17.886 114.339,18.184C112.704,21.44 111.069,24.725 109.42,27.995C103.533,39.768 103.576,39.682 115.533,45.441C118.206,46.72 119.443,46.564 120.766,43.763C124.377,36.071 128.387,28.549 132.027,20.871C133.178,18.454 134.529,17.402 137.273,17.587C140.885,17.829 144.524,17.644 148.719,17.644C146.728,21.668 145.051,24.952 143.444,28.265C141.681,31.919 137.742,36.668 138.851,39.028C140.287,42.099 145.847,43.123 149.444,45.327C152.273,47.047 153.638,46.436 155.018,43.493C158.629,35.801 162.567,28.251 166.335,20.63C167.131,19.009 167.729,17.488 170.075,17.601C174.098,17.786 178.136,17.658 182.828,17.658C180.909,21.497 179.26,24.782 177.625,28.066C171.752,39.796 171.809,39.696 183.824,45.483C186.625,46.834 187.762,46.365 189.013,43.706C192.668,36.028 196.535,28.45 200.345,20.843C201.113,19.322 201.497,17.502 203.957,17.616C208.094,17.786 212.246,17.658 216.952,17.658C214.99,21.568 213.369,24.696 211.862,27.867C210.042,31.677 205.933,36.682 207.113,39.099C208.663,42.298 214.464,43.294 218.246,45.569C220.848,47.147 221.915,46.28 223.024,43.905C225.355,38.929 228.583,34.265 230.19,29.09C233.204,19.307 239.275,15.696 249.071,17.672C249.541,17.772 250.01,17.871 250.877,18.056C249.142,21.554 247.465,24.824 245.872,28.137C244.109,31.791 240.356,36.057 241.194,39C242.176,42.441 248.19,42.938 251.673,45.256C254.773,47.332 256.109,46.194 257.517,43.152C261.029,35.602 264.882,28.208 268.65,20.786C269.332,19.45 269.574,17.63 271.75,17.644C276.058,17.687 280.366,17.644 285.214,17.644C283.224,21.611 281.503,24.696 280.096,27.91C278.404,31.777 273.982,36.014 275.347,39.17C276.669,42.199 282.442,43.166 286.053,45.37C289.053,47.204 290.233,46.109 291.541,43.336C295.096,35.801 298.892,28.393 302.66,20.971C303.271,19.777 303.456,17.829 305.12,17.772C309.499,17.644 314.589,16.179 318.002,18.483C319.708,19.634 315.656,24.085 314.603,27.199C314.49,27.526 314.248,27.81 314.092,28.137C312.357,31.805 308.575,36.085 309.442,39C310.452,42.426 316.452,42.924 319.949,45.256C323.106,47.36 324.414,46.109 325.779,43.109C328.409,37.322 331.438,31.72 334.509,25.606L334.552,25.606Z" style="fill:rgb(238,238,238);fill-rule:nonzero;"/>
                <path d="M512.365,298.853C512.138,200.036 431.478,119.717 332.774,120.03C233.929,120.343 153.653,201.088 154.065,299.749C154.491,398.409 234.882,478.458 333.4,478.33C432.174,478.188 512.579,397.556 512.365,298.853ZM188.189,299.45C188.189,298.213 188.018,296.933 188.217,295.725C188.914,291.559 187.293,290.066 183.099,290.578C180.298,290.919 177.411,290.535 174.582,290.677C172.179,290.805 170.999,290.35 171.454,287.478C172.35,281.876 173.004,276.232 173.572,270.573C173.985,266.577 175.207,265.44 179.572,266.777C190.72,270.203 190.62,269.862 194.018,258.501C195.184,254.591 194.886,252.686 190.506,252.103C187.72,251.734 185.032,250.667 182.274,250.013C179.956,249.473 178.933,248.52 180.042,245.961C182.601,240.131 184.975,234.217 187.393,228.316C188.217,226.297 189.241,225.671 191.303,227.008C194.416,229.027 197.687,230.819 200.914,232.681C202.165,233.406 203.317,234.131 204.383,232.183C206.658,227.975 210.782,223.951 210.952,219.714C211.066,216.814 204.668,215.463 201.326,213.188C200.886,212.889 200.416,212.633 199.933,212.42C197.843,211.51 197.402,210.373 198.924,208.425C201.44,205.226 203.687,201.799 206.218,198.586C212.53,190.581 212.559,190.609 219.597,197.647C220.606,198.657 221.673,199.595 222.597,200.676C223.862,202.14 224.758,202.297 226.45,200.889C237.455,191.704 237.498,191.761 227.701,181.595C227.46,181.339 227.218,181.069 226.934,180.855C225.014,179.405 225.185,178.126 227.062,176.704C231.156,173.576 235.095,170.263 239.232,167.192C244.763,163.097 244.806,163.168 248.147,168.941C249.384,171.088 250.735,173.178 251.872,175.381C252.726,177.031 253.351,177.642 255.441,176.661C268.494,170.576 268.536,170.647 261.768,158.391C261.598,158.078 261.456,157.751 261.242,157.481C259.522,155.376 260.29,154.154 262.593,153.229C268.01,151.054 273.484,148.978 278.759,146.49C282.442,144.755 283.451,145.978 284.347,149.547C287.347,161.462 287.461,161.334 299.461,158.135C302.76,157.253 303.968,156.329 302.831,152.433C299.233,140.191 299.461,140.12 312.229,138.357C324.627,136.637 324.812,136.637 324.585,149.305C324.514,153.244 325.424,154.665 329.476,154.21C333.315,153.784 338.504,155.462 340.793,153.514C343.509,151.196 341.732,145.864 341.647,141.869C341.561,138.3 342.13,136.679 346.225,137.532C350.547,138.428 355.026,138.627 359.419,139.224C366.984,140.234 366.984,140.262 365.107,147.315C364.51,149.547 363.884,151.751 363.216,153.969C362.604,156.016 363.088,156.912 365.377,157.694C378.543,162.201 378.586,162.315 382.197,149.049C382.993,146.106 383.775,144.741 387.131,146.319C392.406,148.808 397.866,150.912 403.297,153.059C405.956,154.111 406.61,155.106 404.975,157.993C402.842,161.732 397.937,165.727 399.6,169.353C401.122,172.666 406.752,174.045 410.477,176.419C412.354,177.628 413.435,177.628 414.529,175.41C416.193,172.083 418.283,168.983 420.046,165.713C420.999,163.95 421.852,163.381 423.643,164.789C428.805,168.841 434.037,172.808 439.298,176.732C441.189,178.14 441.246,179.277 439.468,180.884C436.838,183.258 434.364,185.832 431.918,188.391C431.065,189.287 429.217,190.083 430.952,191.775C434.506,195.23 437.563,199.979 441.814,201.6C444.203,202.51 447.246,196.794 450.16,194.263C450.701,193.794 451.227,193.311 451.668,192.756C452.976,191.121 454.099,191.078 455.421,192.841C459.374,198.088 463.369,203.292 467.45,208.439C468.957,210.344 468.516,211.368 466.455,212.434C463.156,214.14 459.999,216.131 456.758,217.965C455.435,218.719 454.696,219.16 455.535,221.164C461.009,234.103 461.947,234.515 473.677,227.89C474.132,227.634 474.63,227.392 475.042,227.079C476.948,225.643 478.114,226.24 478.981,228.302C480.701,232.383 482.621,236.378 484.27,240.487C487.682,248.975 487.64,249.004 478.952,251.264C477.232,251.705 475.526,252.16 473.805,252.615C472.099,253.07 471.331,253.738 471.673,255.914C473.791,269.919 474.033,270.146 487.299,266.705C487.81,266.577 488.322,266.393 488.82,266.25C490.867,265.625 492.019,265.938 492.303,268.497C492.972,274.668 493.811,280.824 494.877,286.938C495.446,290.194 494.237,290.692 491.308,290.763C486.972,290.862 481,288.616 478.725,291.758C476.606,294.687 478.341,300.317 478.156,304.754C478.057,307.057 478.725,307.896 481.114,307.768C484.654,307.569 488.223,307.81 491.777,307.682C494.123,307.597 495.417,307.924 494.934,310.853C493.995,316.626 493.327,322.455 492.659,328.271C492.261,331.683 491.194,333.389 487.327,331.782C484.412,330.56 481.213,329.991 478.128,329.209C476.763,328.868 475.398,328.413 474.914,330.617C473.891,335.266 471.147,340.171 472.014,344.366C472.611,347.252 478.91,346.641 482.507,348.077C483.161,348.333 483.886,348.389 484.583,348.546C486.815,349.058 487.27,350.252 486.36,352.371C483.829,358.214 481.441,364.129 479.024,370.015C478.199,372.006 477.161,372.674 475.099,371.352C471.971,369.347 468.658,367.627 465.502,365.665C463.81,364.612 462.943,364.826 461.706,366.546C453.374,378.219 453.317,378.191 465.488,385.428C465.644,385.513 465.801,385.599 465.971,385.67C468.573,386.637 469.099,388.002 467.208,390.319C464.962,393.063 463.071,396.092 460.895,398.893C456.251,404.836 451.317,405.191 446.094,399.959C445.34,399.206 444.544,398.495 443.848,397.684C442.625,396.248 441.729,395.978 439.994,397.428C428.918,406.642 428.876,406.585 438.686,416.737C438.928,416.993 439.17,417.263 439.454,417.476C441.331,418.898 441.317,420.149 439.383,421.599C435.843,424.272 432.487,427.187 428.933,429.832C421.681,435.22 421.653,435.178 417.245,427.571C416.364,426.035 415.283,424.585 414.586,422.978C413.619,420.746 412.454,420.59 410.563,421.926C406.823,424.557 400.667,425.552 399.529,429.377C398.676,432.263 402.899,436.671 404.875,440.396C404.961,440.552 405.06,440.709 405.174,440.837C406.88,442.898 406.226,444.121 403.866,445.059C398.278,447.277 392.648,449.453 387.202,451.998C383.932,453.519 383.064,452.424 382.226,449.339C378.742,436.443 378.671,436.571 365.96,440.438C363.273,441.249 362.519,442.244 363.358,444.846C364.396,448.045 365.149,451.33 366.13,454.557C366.827,456.875 366.443,458.055 363.671,458.339C357.855,458.936 352.026,459.647 346.296,460.771C342.258,461.567 341.462,460.145 341.703,456.491C341.959,452.624 343.125,447.462 341.177,445.159C338.874,442.415 333.514,444.704 329.547,444.149C325.58,443.609 324.528,444.946 324.599,448.984C324.841,461.865 324.656,461.88 311.774,459.903C303.603,458.652 300.584,453.984 302.717,445.898C302.859,445.386 303.072,444.889 303.229,444.391C303.84,442.386 303.442,441.476 301.068,440.709C287.816,436.401 287.845,436.287 284.205,449.254C284.162,449.424 284.134,449.609 284.119,449.78C283.679,452.965 282.157,453.292 279.356,452.026C274.209,449.68 268.949,447.562 263.659,445.557C260.546,444.377 259.692,443.026 261.726,439.941C263.944,436.585 267.655,432.405 267.001,429.419C266.219,425.865 260.275,425.054 256.891,422.552C254.332,420.661 252.754,420.689 251.332,423.817C250.01,426.704 248.09,429.32 246.683,432.178C245.574,434.424 244.45,435.036 242.318,433.344C237.313,429.377 232.251,425.481 227.147,421.628C225.298,420.234 225.128,419.111 226.934,417.476C229.692,414.974 232.251,412.244 234.882,409.599C235.72,408.76 236.957,407.978 235.507,406.585C231.924,403.158 228.881,398.381 224.63,396.746C222.242,395.836 219.185,401.537 216.27,404.068C215.872,404.424 215.459,404.779 215.147,405.206C213.597,407.281 212.246,407.296 210.639,405.149C206.829,400.016 202.947,394.94 198.995,389.935C197.488,388.03 197.886,386.992 199.933,385.911C203.232,384.177 206.345,382.129 209.644,380.409C211.493,379.442 211.564,378.603 210.639,376.741C204.312,364.029 204.369,364.001 192.241,370.726C191.928,370.897 191.63,371.082 191.345,371.309C189.44,372.816 188.288,372.12 187.435,370.086C185.644,365.849 183.667,361.683 181.961,357.404C178.776,349.399 178.847,349.37 187.449,347.096C189.17,346.641 190.876,346.171 192.582,345.702C194.26,345.261 195.085,344.693 194.743,342.46C192.568,328.384 192.284,328.128 179.089,331.612C178.577,331.754 178.08,331.939 177.568,332.109C175.478,332.82 174.383,332.408 174.113,329.863C173.643,325.285 172.62,320.763 172.165,316.185C171.326,307.739 171.425,307.725 179.928,307.725C188.43,307.725 188.217,307.725 188.217,299.464L188.189,299.45Z" style="fill:rgb(238,238,238);fill-rule:nonzero;"/>
                <path d="M333.03,393.006C384.899,392.949 427.113,350.892 427.027,299.365C426.942,246.97 384.941,205.268 332.334,205.354C281.233,205.425 239.36,247.838 239.375,299.507C239.375,350.792 281.731,393.077 333.03,393.021L333.03,393.006ZM296.56,366.432C291.669,364.044 287.688,360.802 283.551,357.745C280.536,355.513 281.063,354.176 283.664,351.873C295.395,341.494 304.196,328.939 310.31,314.493C313.295,307.441 312.272,304.199 305.859,300.332C291.186,291.488 275.276,286.526 258.114,285.09C258.413,279.701 260.56,275.009 262.067,270.146C263.119,266.777 264.456,266.378 267.598,268.227C281.39,276.36 296.347,281.037 312.343,282.118C319.381,282.601 322.011,280.483 323.604,273.729C326.547,261.16 327.044,248.492 325.779,235.653C325.367,231.43 321.158,226.084 325.281,223.226C328.836,220.766 334.594,222.444 339.386,222.558C342.571,222.629 343.125,223.937 342.443,226.923C338.874,242.392 339.173,257.89 342.756,273.331C344.433,280.568 346.879,282.63 354.201,282.118C370.197,280.981 385.14,276.289 398.946,268.17C401.776,266.506 403.183,266.521 404.15,269.819C405.288,273.715 406.596,277.582 407.875,281.436C408.814,284.251 408.117,285.203 404.904,285.516C388.794,287.08 373.78,292.142 359.988,300.673C354.372,304.142 353.234,307.611 355.737,313.64C360.671,325.555 367.794,336.048 376.197,345.802C379.069,349.129 385.794,351.048 384.216,355.84C382.894,359.821 377.32,362.124 373.197,364.598C372.159,365.224 371.078,365.764 369.841,366.447C363.415,350.934 354.216,337.612 341.789,326.607C334.609,320.251 331.68,320.28 324.514,326.692C312.158,337.74 302.987,351.062 296.56,366.418L296.56,366.432ZM396.927,341.707C387.899,334.157 380.818,325.455 375.429,315.375C374.647,313.91 373.296,312.517 375.927,311.251C385.737,306.545 395.989,303.517 406.809,302.393C408.899,302.18 410.122,302.393 409.837,305.081C408.444,318.275 404.662,330.574 396.927,341.707ZM273.086,251.691C281.375,241.127 291.598,233.548 303.726,228.302C307.224,226.781 307.167,229.027 307.58,231.103C309.528,240.942 309.926,250.809 308.76,260.791C308.376,264.004 307.153,264.587 304.324,264.018C293.262,261.829 282.882,258.004 273.086,251.691ZM269.446,341.749C261.825,330.489 257.901,318.19 256.579,304.91C256.28,301.953 257.986,302.237 259.806,302.436C270.299,303.559 280.295,306.46 289.849,310.953C292.252,312.076 292.281,313.199 291.129,315.289C285.612,325.356 278.589,334.157 269.446,341.749ZM393.33,251.719C383.576,257.975 373.254,261.857 362.235,263.947C360.543,264.274 358.296,265.326 357.841,262.042C356.362,251.236 356.86,240.53 359.064,229.866C359.462,227.932 360.287,227.25 362.377,228.16C374.605,233.42 384.998,241.013 393.33,251.719ZM333.443,375.959C327.371,376.058 321.428,375.134 315.499,373.883C313.31,373.414 312.357,372.802 313.452,370.371C317.845,360.56 323.703,351.773 331.125,343.996C332.76,342.276 333.798,342.404 335.376,344.067C342.642,351.745 348.471,360.319 352.794,369.973C353.917,372.475 353.533,373.371 350.846,373.911C345.087,375.063 339.329,376.016 333.443,375.959Z" style="fill:rgb(238,238,238);fill-rule:nonzero;"/>
                <path d="M452.947,299.166C461.507,299.166 461.677,299.152 460.995,291.417C456.815,244.752 434.492,209.719 393.813,186.33C389.861,184.055 388.126,184.78 386.69,188.818C385.453,192.287 382.126,195.87 382.638,198.898C383.192,202.098 388.396,202.823 391.453,204.813C424.255,226.098 441.772,256.241 443.947,295.227C444.132,298.54 444.957,299.663 448.17,299.208C449.734,298.981 451.355,299.166 452.961,299.166L452.947,299.166Z" style="fill:rgb(238,238,238);fill-rule:nonzero;"/>
                <path d="M333.215,419.04C333.215,427.4 333.229,427.585 340.566,426.945C387.23,422.907 422.349,400.698 445.852,360.091C448.127,356.167 447.928,354.105 443.421,352.584C439.937,351.404 436.411,348.105 433.34,348.574C430.454,349.015 429.715,354.134 427.809,357.077C406.468,390.063 376.197,407.694 337.011,409.912C334.168,410.068 332.746,410.566 333.172,413.708C333.4,415.457 333.215,417.248 333.215,419.026L333.215,419.04Z" style="fill:rgb(238,238,238);fill-rule:nonzero;"/>
                <path d="M329.604,170.888C279.953,175.097 243.654,197.178 220.052,239.392C218.502,242.165 218.189,243.842 221.73,245.151C225.526,246.544 229.336,250.198 232.735,249.743C236.403,249.26 237.085,243.53 239.275,240.217C260.588,207.956 290.518,190.652 329.078,188.476C332.689,188.277 333.599,187.197 333.272,183.912C333.03,181.453 332.988,178.922 333.272,176.476C333.784,172.111 332.419,170.078 329.604,170.903L329.604,170.888Z" style="fill:rgb(238,238,238);fill-rule:nonzero;"/>
                <path d="M213.355,299.18C204.895,299.18 204.739,299.18 205.45,307.057C209.673,353.48 231.839,388.442 272.276,411.817C276.171,414.064 278.29,413.95 279.811,409.414C280.991,405.931 284.319,402.319 283.736,399.362C283.281,397.03 278.262,395.651 275.318,393.76C242.474,372.603 224.858,342.489 222.483,303.531C222.284,300.275 221.772,298.569 218.132,299.152C216.568,299.393 214.948,299.194 213.355,299.194L213.355,299.18Z" style="fill:rgb(238,238,238);fill-rule:nonzero;"/>
            </g>
        </g>
    </g>
</svg>
