<?xml version="1.0" encoding="UTF-8" standalone="no"?>
<!DOCTYPE svg PUBLIC "-//W3C//DTD SVG 1.1//EN" "http://www.w3.org/Graphics/SVG/1.1/DTD/svg11.dtd">
<svg width="100%" height="100%" viewBox="0 0 479 479" version="1.1" xmlns="http://www.w3.org/2000/svg" xmlns:xlink="http://www.w3.org/1999/xlink" xml:space="preserve" xmlns:serif="http://www.serif.com/" style="fill-rule:evenodd;clip-rule:evenodd;stroke-linejoin:round;stroke-miterlimit:2;">
    <clipPath id="_clip1">
        <rect id="battery-svgrepo-com.svg" x="0.279" y="0.991" width="477.819" height="477.819"/>
    </clipPath>
    <g clip-path="url(#_clip1)">
        <g>
            <g>
                <g>
                    <path d="M454.208,96.554L350.68,96.554L350.68,24.881C350.68,20.493 354.256,16.918 358.644,16.918L390.498,16.918C394.886,16.918 398.461,20.493 398.461,24.881L398.461,32.845L390.498,32.845C386.103,32.845 382.535,36.413 382.535,40.808C382.535,45.204 386.103,48.772 390.498,48.772L398.461,48.772L398.461,64.699L390.498,64.699C386.103,64.699 382.535,68.267 382.535,72.662C382.535,77.058 386.103,80.626 390.498,80.626L406.426,80.626C410.821,80.626 414.389,77.058 414.389,72.662L414.389,24.881C414.389,11.71 403.67,0.991 390.498,0.991L358.644,0.991C345.472,0.991 334.753,11.71 334.753,24.881L334.753,101.222L323.492,112.482L154.886,112.482L143.625,101.222L143.625,24.881C143.625,11.71 132.906,0.991 119.734,0.991L87.88,0.991C74.708,0.991 63.989,11.71 63.989,24.881L63.989,72.663C63.989,77.059 67.557,80.627 71.952,80.627C76.348,80.627 79.916,77.059 79.916,72.663L79.916,24.881C79.916,20.493 83.491,16.918 87.879,16.918L119.734,16.918C124.122,16.918 127.697,20.493 127.697,24.881L127.697,32.845L119.734,32.845C115.339,32.845 111.771,36.413 111.771,40.808C111.771,45.204 115.339,48.772 119.734,48.772L127.697,48.772L127.697,64.699L119.734,64.699C115.339,64.699 111.771,68.267 111.771,72.662C111.771,77.058 115.339,80.626 119.734,80.626L127.697,80.626L127.697,96.554L24.17,96.554C10.999,96.554 0.279,107.274 0.279,120.445L0.279,152.3C0.279,162.668 6.953,171.421 16.207,174.717L16.207,438.991C16.207,460.947 34.069,478.81 56.026,478.81L422.353,478.81C444.309,478.81 462.172,460.948 462.172,438.991L462.172,200.082C462.172,195.686 458.604,192.118 454.209,192.118C449.813,192.118 446.245,195.686 446.245,200.082L446.245,438.991C446.245,452.163 435.526,462.882 422.354,462.882L56.025,462.882C42.853,462.882 32.134,452.163 32.134,438.991L32.134,168.227C32.134,163.832 28.566,160.264 24.17,160.264C19.782,160.264 16.207,156.689 16.207,152.301L16.207,120.445C16.207,116.057 19.782,112.482 24.17,112.482L132.365,112.482L145.958,126.076C147.448,127.565 149.478,128.409 151.588,128.409L326.789,128.409C328.899,128.409 330.922,127.564 332.419,126.076L346.012,112.482L454.208,112.482C458.596,112.482 462.171,116.057 462.171,120.445L462.171,152.3C462.171,156.688 458.596,160.263 454.208,160.263L56.025,160.263C51.629,160.263 48.061,163.831 48.061,168.226C48.061,172.622 51.629,176.19 56.025,176.19L454.208,176.19C467.379,176.19 478.099,165.47 478.099,152.299L478.099,120.445C478.099,107.274 467.379,96.554 454.208,96.554Z" style="fill:rgb(238,238,238);fill-rule:nonzero;stroke:rgb(238,238,238);stroke-width:2.8px;"/>
                    <path d="M342.716,319.536C338.321,319.536 334.753,323.104 334.753,327.5C334.753,331.895 338.321,335.463 342.716,335.463L406.426,335.463C410.821,335.463 414.389,331.895 414.389,327.5C414.389,323.104 410.821,319.536 406.426,319.536L342.716,319.536Z" style="fill:rgb(238,238,238);fill-rule:nonzero;stroke:rgb(238,238,238);stroke-width:2.8px;"/>
                    <path d="M211.69,414.241C212.837,414.822 214.071,415.101 215.29,415.101C217.599,415.101 219.861,414.098 221.414,412.234L301.05,316.67C303.033,314.297 303.455,310.993 302.149,308.198C300.835,305.402 298.024,303.611 294.934,303.611L256.868,303.611L270.885,233.499C271.626,229.82 269.69,226.125 266.25,224.635C262.81,223.138 258.78,224.261 256.599,227.311L176.962,338.802C175.234,341.231 174.995,344.417 176.365,347.076C177.727,349.72 180.458,351.393 183.445,351.393L221.025,351.393L207.574,405.203C206.673,408.809 208.378,412.56 211.69,414.241ZM198.917,335.464L247.988,266.762L239.34,310.013C238.871,312.354 239.484,314.775 240.997,316.623C242.509,318.471 244.763,319.537 247.152,319.537L277.932,319.537L231.464,375.291L238.949,345.364C239.546,342.983 239.005,340.458 237.5,338.531C235.994,336.595 233.677,335.465 231.225,335.465L198.917,335.465L198.917,335.464Z" style="fill:rgb(238,238,238);fill-rule:nonzero;stroke:rgb(238,238,238);stroke-width:2.8px;"/>
                    <path d="M103.807,367.318C108.202,367.318 111.77,363.751 111.77,359.355L111.77,335.464L135.661,335.464C140.056,335.464 143.624,331.896 143.624,327.501C143.624,323.105 140.056,319.537 135.661,319.537L111.77,319.537L111.77,295.646C111.77,291.251 108.202,287.683 103.807,287.683C99.411,287.683 95.843,291.251 95.843,295.646L95.843,319.537L71.952,319.537C67.557,319.537 63.989,323.105 63.989,327.501C63.989,331.896 67.557,335.464 71.952,335.464L95.843,335.464L95.843,359.355C95.843,363.751 99.411,367.318 103.807,367.318Z" style="fill:rgb(238,238,238);fill-rule:nonzero;stroke:rgb(238,238,238);stroke-width:2.8px;"/>
                </g>
            </g>
        </g>
    </g>
</svg>
