<?xml version="1.0" encoding="UTF-8" standalone="no"?>
<!DOCTYPE svg PUBLIC "-//W3C//DTD SVG 1.1//EN" "http://www.w3.org/Graphics/SVG/1.1/DTD/svg11.dtd">
<svg width="100%" height="100%" viewBox="0 0 513 513" version="1.1" xmlns="http://www.w3.org/2000/svg" xmlns:xlink="http://www.w3.org/1999/xlink" xml:space="preserve" xmlns:serif="http://www.serif.com/" style="fill-rule:evenodd;clip-rule:evenodd;stroke-linejoin:round;stroke-miterlimit:2;">
    <clipPath id="_clip1">
        <rect id="car-svgrepo-com.svg" x="0.877" y="0.33" width="512" height="512"/>
    </clipPath>
    <g clip-path="url(#_clip1)">
        <g>
            <path d="M106.808,315.18C91.453,315.18 78.962,327.672 78.962,343.027C78.962,358.382 91.453,370.873 106.808,370.873C122.163,370.873 134.655,358.381 134.655,343.027C134.655,327.673 122.163,315.18 106.808,315.18ZM106.808,354.191C100.652,354.191 95.644,349.182 95.644,343.027C95.644,336.871 100.652,331.862 106.808,331.862C112.965,331.862 117.973,336.87 117.973,343.027C117.973,349.183 112.965,354.191 106.808,354.191Z" style="fill:rgb(238,238,238);fill-rule:nonzero;"/>
            <path d="M397.916,315.18C382.561,315.18 370.068,327.672 370.068,343.027C370.068,358.382 382.561,370.873 397.916,370.873C413.27,370.873 425.761,358.381 425.761,343.027C425.761,327.673 413.27,315.18 397.916,315.18ZM397.916,354.191C391.759,354.191 386.75,349.182 386.75,343.027C386.75,336.871 391.759,331.862 397.916,331.862C404.071,331.862 409.079,336.87 409.079,343.027C409.079,349.183 404.071,354.191 397.916,354.191Z" style="fill:rgb(238,238,238);fill-rule:nonzero;"/>
            <path d="M455.985,218.772L381.565,210.27L341.847,145.705C329.72,125.99 307.805,113.742 284.658,113.742L149.54,113.742C110.7,113.742 76.372,139.897 66.062,177.347L65.007,181.178C59.884,199.787 45.162,214.6 26.585,219.838C11.449,224.106 0.877,238.07 0.877,253.796L0.877,346.115C0.877,350.721 4.612,354.456 9.218,354.456L52.098,354.456C57.388,379.81 79.907,398.916 106.808,398.916C133.709,398.916 156.229,379.81 161.519,354.456L343.205,354.456C348.496,379.81 371.015,398.916 397.916,398.916C424.817,398.916 447.336,379.81 452.626,354.456L497.641,354.456C501.882,354.456 505.448,351.274 505.929,347.06L512.461,289.805C516.469,254.659 491.135,222.794 455.985,218.772ZM17.559,327.64L53.09,327.64C52.152,330.907 51.5,334.293 51.173,337.774L17.559,337.774L17.559,327.64ZM106.808,382.234C85.189,382.234 67.601,364.646 67.601,343.027C67.601,321.407 85.189,303.818 106.808,303.818C128.428,303.818 146.016,321.407 146.016,343.027C146.016,364.646 128.428,382.234 106.808,382.234ZM397.916,382.234C376.296,382.234 358.708,364.646 358.708,343.027C358.708,321.407 376.296,303.818 397.916,303.818C419.535,303.818 437.123,321.407 437.123,343.027C437.123,364.646 419.535,382.234 397.916,382.234ZM397.916,287.136C379.024,287.136 362.305,296.567 352.183,310.958L203.755,310.958C199.148,310.958 195.414,314.692 195.414,319.299C195.414,323.905 199.148,327.64 203.755,327.64L344.197,327.64C343.26,330.907 342.607,334.293 342.28,337.774L162.444,337.774C159.787,309.411 135.855,287.136 106.808,287.136C87.917,287.136 71.197,296.567 61.076,310.958L17.559,310.958L17.559,253.796C17.559,245.505 23.133,238.143 31.112,235.893C55.276,229.081 74.426,209.812 81.091,185.606L82.145,181.774C90.468,151.541 118.183,130.424 149.54,130.424L284.658,130.424C302.055,130.424 318.524,139.629 327.638,154.445L369.482,222.467C370.825,224.649 373.095,226.092 375.64,226.384L454.09,235.346C471.886,237.382 486.278,249.064 492.647,264.568L466.609,264.568C462.002,264.568 458.268,268.303 458.268,272.909C458.268,277.515 462.002,281.25 466.609,281.25L496.167,281.25C496.224,283.446 496.141,285.671 495.885,287.915L493.256,310.958L443.647,310.958C433.527,296.567 416.806,287.136 397.916,287.136ZM453.55,337.774C453.224,334.293 452.571,330.907 451.633,327.64L491.353,327.64L490.197,337.774L453.55,337.774Z" style="fill:rgb(238,238,238);fill-rule:nonzero;"/>
            <path d="M285.095,239.681L267.568,239.681C262.962,239.681 259.227,243.416 259.227,248.022C259.227,252.628 262.962,256.363 267.568,256.363L285.095,256.363C289.701,256.363 293.436,252.628 293.436,248.022C293.436,243.416 289.702,239.681 285.095,239.681Z" style="fill:rgb(238,238,238);fill-rule:nonzero;"/>
            <path d="M173.084,248.022C173.084,243.416 169.349,239.681 164.743,239.681L147.216,239.681C142.61,239.681 138.875,243.416 138.875,248.022C138.875,252.628 142.61,256.363 147.216,256.363L164.743,256.363C169.349,256.363 173.084,252.628 173.084,248.022Z" style="fill:rgb(238,238,238);fill-rule:nonzero;"/>
            <path d="M183.415,316.105C181.954,312.643 178.235,310.467 174.491,311.049C171.1,311.576 168.35,314.127 167.581,317.473C165.917,324.712 174.31,330.333 180.415,326.179C183.646,323.982 184.906,319.713 183.415,316.105C183.204,315.604 183.627,316.616 183.415,316.105Z" style="fill:rgb(238,238,238);fill-rule:nonzero;"/>
            <path d="M318.958,159.797C311.694,147.967 298.553,140.618 284.659,140.618L149.537,140.618C122.749,140.618 99.079,158.654 91.973,184.484L90.924,188.307C88.179,198.267 83.953,215.376 83.774,216.1C83.159,218.589 83.724,221.222 85.305,223.242C86.886,225.26 89.307,226.44 91.872,226.44L345.033,226.44C348.055,226.44 350.841,224.807 352.315,222.169C353.789,219.531 353.721,216.302 352.138,213.729L318.958,159.797ZM222.58,157.299L222.58,209.756L145.784,209.756L145.784,157.467C147.024,157.358 148.275,157.299 149.537,157.299L222.58,157.299ZM107.009,192.728L108.058,188.901C111.239,177.34 119.029,167.95 129.102,162.492L129.102,209.755L102.56,209.755C103.967,204.204 105.685,197.533 107.009,192.728ZM239.261,209.756L239.261,157.299L284.659,157.299C292.795,157.299 300.49,161.601 304.746,168.531L330.11,209.756L239.261,209.756Z" style="fill:rgb(238,238,238);fill-rule:nonzero;"/>
        </g>
    </g>
</svg>
