<?xml version="1.0" encoding="UTF-8" standalone="no"?>
<!DOCTYPE svg PUBLIC "-//W3C//DTD SVG 1.1//EN" "http://www.w3.org/Graphics/SVG/1.1/DTD/svg11.dtd">
<svg width="100%" height="100%" viewBox="0 0 479 479" version="1.1" xmlns="http://www.w3.org/2000/svg" xmlns:xlink="http://www.w3.org/1999/xlink" xml:space="preserve" xmlns:serif="http://www.serif.com/" style="fill-rule:evenodd;clip-rule:evenodd;stroke-linecap:round;stroke-linejoin:round;">
    <path d="M405.166,451.487C429.845,453.715 451.824,433.303 451.725,408.857L451.725,344.913C451.985,334.459 448.386,324.274 441.613,316.296C422.513,293.797 357.004,279.407 331.037,284.933C310.794,289.242 296.633,309.565 282.788,323.384C253.92,307.003 227.733,286.585 204.963,262.869M154.642,195.491C168.487,181.674 188.852,167.541 193.169,147.339C198.698,121.463 184.327,56.372 161.984,37.195C154.125,30.45 144.077,26.787 133.712,26.889L69.639,26.889C45.226,26.912 24.915,48.808 27.138,73.356C26.99,260.599 156.349,412.711 333.746,445.109" style="fill:none;fill-rule:nonzero;stroke:rgb(238,238,238);stroke-width:35.4px;"/>
</svg>
